<?xml version="1.0" encoding="UTF-8" standalone="no"?>
<svg
   width="118.24445"
   zoomAndPan="magnify"
   viewBox="0 0 88.68334 143.50451"
   height="191.33936"
   preserveAspectRatio="xMidYMid"
   version="1.0"
   id="svg12"
   sodipodi:docname="favicon.svg"
   inkscape:version="1.4 (e7c3feb100, 2024-10-09)"
   xmlns:inkscape="http://www.inkscape.org/namespaces/inkscape"
   xmlns:sodipodi="http://sodipodi.sourceforge.net/DTD/sodipodi-0.dtd"
   xmlns="http://www.w3.org/2000/svg"
   xmlns:svg="http://www.w3.org/2000/svg">
  <sodipodi:namedview
     id="namedview12"
     pagecolor="#ffffff"
     bordercolor="#000000"
     borderopacity="0.25"
     inkscape:showpageshadow="false"
     inkscape:pageopacity="0.0"
     inkscape:pagecheckerboard="0"
     inkscape:deskcolor="#d1d1d1"
     showborder="false"
     borderlayer="false"
     inkscape:antialias-rendering="true"
     inkscape:zoom="1.104"
     inkscape:cx="58.876812"
     inkscape:cy="95.108696"
     inkscape:window-width="1366"
     inkscape:window-height="761"
     inkscape:window-x="0"
     inkscape:window-y="32"
     inkscape:window-maximized="1"
     inkscape:current-layer="svg12" />
  <defs
     id="defs4">
    <g
       id="g1" />
    <clipPath
       id="3255c5fe99">
      <path
         d="M 143.01172,116 H 232 v 143.88281 h -88.98828 z m 0,0"
         clip-rule="nonzero"
         id="path1" />
    </clipPath>
    <clipPath
       id="14aa2bd200">
      <path
         d="m 181,142 h 13 v 36 h -13 z m 0,0"
         clip-rule="nonzero"
         id="path2" />
    </clipPath>
    <clipPath
       id="c694590244">
      <path
         d="m 180.76953,142.78125 11.99219,-0.42969 1.2539,35.23047 -11.99218,0.42578 z m 0,0"
         clip-rule="nonzero"
         id="path3" />
    </clipPath>
    <clipPath
       id="46936f0fe9">
      <path
         d="m 180.76953,142.78125 11.99219,-0.42969 1.2539,35.23047 -11.99218,0.42578 z m 0,0"
         clip-rule="nonzero"
         id="path4" />
    </clipPath>
  </defs>
  <g
     clip-path="url(#3255c5fe99)"
     id="g5"
     transform="translate(-143.18705,-116.35487)">
    <path
       fill="#211f60"
       d="m 187.64844,259.85937 c -3.28516,-16.1289 -9.07813,-29.54687 -16.09375,-41.98437 -5.20313,-9.22656 -11.23047,-17.74219 -16.8086,-26.6875 -1.86328,-2.98828 -3.46875,-6.14453 -5.25781,-9.24219 -3.57812,-6.19922 -6.47656,-13.38281 -6.29297,-22.70312 0.17969,-9.10938 2.8125,-16.41407 6.61328,-22.38672 6.2461,-9.82422 16.70703,-17.87891 30.75,-19.99609 11.47657,-1.73047 22.24219,1.19531 29.8711,5.65625 6.23828,3.64843 11.07031,8.51953 14.73828,14.26171 3.83203,5.99219 6.47265,13.07032 6.6914,22.30469 0.11329,4.73047 -0.66015,9.11328 -1.75,12.74609 -1.10546,3.67969 -2.88281,6.75391 -4.46093,10.03907 -3.08594,6.41015 -6.95313,12.28515 -10.83594,18.16015 -11.5625,17.50782 -22.41406,35.36328 -27.16406,59.83203 z m 0,0"
       fill-opacity="1"
       fill-rule="evenodd"
       id="path5" />
  </g>
  <path
     fill="#ffffff"
     d="m 59.875455,42.785755 c 0,1.01954 -0.0977,2.03125 -0.29688,3.03125 -0.19921,1 -0.49218,1.97266 -0.88281,2.91407 -0.39062,0.9414 -0.87109,1.83593 -1.4375,2.68359 -0.5664,0.85156 -1.21094,1.63672 -1.92969,2.35547 -0.72265,0.72266 -1.50781,1.36719 -2.35546,1.93359 -0.84766,0.56641 -1.74219,1.04297 -2.6875,1.4336 -0.94141,0.39062 -1.91407,0.6875 -2.91407,0.88672 -1,0.19921 -2.00781,0.29687 -3.03125,0.29687 -1.01953,0 -2.02734,-0.0977 -3.02734,-0.29687 -1.00391,-0.19922 -1.97266,-0.4961 -2.91406,-0.88672 -0.94532,-0.39063 -1.83985,-0.86719 -2.6875,-1.4336 -0.84766,-0.5664 -1.63282,-1.21093 -2.35547,-1.93359 -0.71875,-0.71875 -1.36328,-1.50391 -1.92969,-2.35547 -0.56641,-0.84766 -1.04687,-1.74219 -1.4375,-2.68359 -0.39062,-0.94141 -0.68359,-1.91407 -0.88281,-2.91407 -0.19922,-1 -0.30078,-2.01171 -0.30078,-3.03125 0,-1.01953 0.10156,-2.03125 0.30078,-3.03125 0.19922,-1 0.49219,-1.97265 0.88281,-2.91406 0.39063,-0.9414 0.87109,-1.83594 1.4375,-2.6875 0.56641,-0.84765 1.21094,-1.63281 1.92969,-2.35156 0.72265,-0.72266 1.50781,-1.36719 2.35547,-1.93359 0.84765,-0.56641 1.74218,-1.04297 2.6875,-1.4336 0.9414,-0.39062 1.91015,-0.6875 2.91406,-0.88672 1,-0.19922 2.00781,-0.29687 3.02734,-0.29687 1.02344,0 2.03125,0.0977 3.03125,0.29687 1,0.19922 1.97266,0.4961 2.91407,0.88672 0.94531,0.39063 1.83984,0.86719 2.6875,1.4336 0.84765,0.5664 1.63281,1.21093 2.35546,1.93359 0.71875,0.71875 1.36329,1.50391 1.92969,2.35156 0.56641,0.85156 1.04688,1.7461 1.4375,2.6875 0.39063,0.94141 0.6836,1.91406 0.88281,2.91406 0.19922,1 0.29688,2.01172 0.29688,3.03125 z m 0,0"
     fill-opacity="1"
     fill-rule="nonzero"
     id="path6" />
  <g
     fill="#ffbd59"
     fill-opacity="1"
     id="g9"
     transform="translate(-143.18705,-116.35487)">
    <g
       transform="translate(158.75624,184.89452)"
       id="g8">
      <g
         id="g7">
        <path
           d="m 28.875,0.515625 c -4.835938,0 -9.265625,-1.125 -13.296875,-3.375 C 11.546875,-5.109375 8.34375,-8.25 5.96875,-12.28125 3.601562,-16.3125 2.421875,-20.84375 2.421875,-25.875 c 0,-5.03125 1.179687,-9.546875 3.546875,-13.546875 2.375,-4.007813 5.578125,-7.132813 9.609375,-9.375 4.03125,-2.25 8.460937,-3.375 13.296875,-3.375 4.832031,0 9.265625,1.125 13.296875,3.375 4.03125,2.242187 7.207031,5.367187 9.53125,9.375 2.320313,4 3.484375,8.515625 3.484375,13.546875 0,5.03125 -1.179688,9.5625 -3.53125,13.59375 -2.34375,4.03125 -5.523438,7.171875 -9.53125,9.421875 -4,2.25 -8.417969,3.375 -13.25,3.375 z m 0,-11.4375 c 4.101562,0 7.390625,-1.363281 9.859375,-4.09375 2.46875,-2.738281 3.703125,-6.359375 3.703125,-10.859375 0,-4.539062 -1.234375,-8.164062 -3.703125,-10.875 -2.46875,-2.707031 -5.757813,-4.0625 -9.859375,-4.0625 -4.15625,0 -7.46875,1.34375 -9.9375,4.03125 -2.460938,2.6875 -3.6875,6.324219 -3.6875,10.90625 0,4.554688 1.226562,8.183594 3.6875,10.890625 2.46875,2.710937 5.78125,4.0625 9.9375,4.0625 z m 0,0"
           id="path7" />
      </g>
    </g>
  </g>
  <g
     clip-path="url(#14aa2bd200)"
     id="g12"
     transform="translate(-143.18705,-116.35487)">
    <g
       clip-path="url(#c694590244)"
       id="g11">
      <g
         clip-path="url(#46936f0fe9)"
         id="g10">
        <path
           fill="#211f60"
           d="m 181.48828,163.01953 c 0.004,0 3.58203,-8.03516 9.15625,-20.53516 -1.07812,5.05469 -2.16016,10.10938 -3.24219,15.16407 2.03516,-0.0703 4.07032,-0.14453 6.10547,-0.21485 -4.79687,10.64453 -9.17187,20.35938 -9.17187,20.36328 0,-0.004 3.33984,-14.91406 3.33984,-14.91406 0,0.004 -6.1875,0.13672 -6.1875,0.13672 z m 0,0"
           fill-opacity="1"
           fill-rule="nonzero"
           id="path9" />
      </g>
    </g>
  </g>
</svg>
