<?xml version="1.0" encoding="UTF-8" standalone="no"?>
<svg
   width="445.58499"
   zoomAndPan="magnify"
   viewBox="-5 -8 334.18875 160.75425"
   height="214.339"
   preserveAspectRatio="xMidYMid"
   version="1.0"
   id="svg177"
   sodipodi:docname="logo_with_text.svg"
   inkscape:version="1.4 (e7c3feb100, 2024-10-09)"
   xmlns:inkscape="http://www.inkscape.org/namespaces/inkscape"
   xmlns:sodipodi="http://sodipodi.sourceforge.net/DTD/sodipodi-0.dtd"
   xmlns="http://www.w3.org/2000/svg"
   xmlns:svg="http://www.w3.org/2000/svg">
  <sodipodi:namedview
     id="namedview177"
     pagecolor="#ffffff"
     bordercolor="#000000"
     borderopacity="0.25"
     inkscape:showpageshadow="false"
     inkscape:pageopacity="0.0"
     inkscape:pagecheckerboard="false"
     inkscape:deskcolor="#d1d1d1"
     showborder="false"
     borderlayer="false"
     inkscape:zoom="1.104"
     inkscape:cx="217.3913"
     inkscape:cy="95.108696"
     inkscape:window-width="1366"
     inkscape:window-height="761"
     inkscape:window-x="0"
     inkscape:window-y="32"
     inkscape:window-maximized="1"
     inkscape:current-layer="svg177" />
  <defs
     id="defs4">
    <g
       id="g1" />
    <clipPath
       id="6583a21916">
      <path
         d="M 25.105469,116 H 114 V 259.88281 H 25.105469 Z m 0,0"
         clip-rule="nonzero"
         id="path1" />
    </clipPath>
    <clipPath
       id="ba4a575486">
      <path
         d="m 288,141 h 13 v 37 h -13 z m 0,0"
         clip-rule="nonzero"
         id="path2" />
    </clipPath>
    <clipPath
       id="69ddd59572">
      <path
         d="m 287.51953,142.03125 11.99219,-0.42969 1.2539,35.23047 -11.99218,0.42578 z m 0,0"
         clip-rule="nonzero"
         id="path3" />
    </clipPath>
    <clipPath
       id="0f1bb6dfa7">
      <path
         d="m 287.51953,142.03125 11.99219,-0.42969 1.2539,35.23047 -11.99218,0.42578 z m 0,0"
         clip-rule="nonzero"
         id="path4" />
    </clipPath>
  </defs>
  <g
     clip-path="url(#6583a21916)"
     id="g5"
     transform="translate(-25.280795,-116.35487)">
    <path
       fill="#211f60"
       d="M 69.742188,259.85937 C 66.457031,243.73047 60.664062,230.3125 53.648438,217.875 48.445312,208.64844 42.417969,200.13281 36.839844,191.1875 c -1.859375,-2.98828 -3.46875,-6.14453 -5.257813,-9.24219 -3.578125,-6.19922 -6.476562,-13.38281 -6.292969,-22.70312 0.179688,-9.10938 2.8125,-16.41407 6.613282,-22.38672 6.246094,-9.82422 16.710937,-17.87891 30.75,-19.99609 11.480468,-1.73047 22.242187,1.19531 29.875,5.65625 6.234375,3.64843 11.066406,8.51953 14.738286,14.26171 3.82812,5.99219 6.46875,13.07032 6.6914,22.30469 0.11328,4.73047 -0.66406,9.11328 -1.7539,12.74609 -1.10547,3.67969 -2.87891,6.75391 -4.46094,10.03907 -3.08594,6.41015 -6.95313,12.28515 -10.83594,18.16015 -11.558594,17.50782 -22.414062,35.36328 -27.164062,59.83203 z m 0,0"
       fill-opacity="1"
       fill-rule="evenodd"
       id="path5" />
  </g>
  <path
     fill="#ffffff"
     d="m 59.879361,42.785755 c 0,1.01954 -0.101562,2.03125 -0.300781,3.03125 -0.199219,1 -0.492187,1.97266 -0.882813,2.91407 -0.390624,0.9414 -0.867187,1.83593 -1.4375,2.68359 -0.566406,0.85156 -1.207031,1.63672 -1.929687,2.35547 -0.722656,0.72266 -1.507813,1.36719 -2.355469,1.93359 -0.847656,0.56641 -1.742187,1.04297 -2.683594,1.4336 -0.945312,0.39062 -1.914062,0.6875 -2.914062,0.88672 -1.003906,0.19921 -2.011719,0.29687 -3.03125,0.29687 -1.019531,0 -2.03125,-0.0977 -3.03125,-0.29687 -1,-0.19922 -1.972656,-0.4961 -2.914062,-0.88672 -0.945313,-0.39063 -1.839844,-0.86719 -2.6875,-1.4336 -0.847657,-0.5664 -1.632813,-1.21093 -2.351563,-1.93359 -0.722656,-0.71875 -1.367187,-1.50391 -1.933594,-2.35547 -0.566406,-0.84766 -1.046875,-1.74219 -1.4375,-2.68359 -0.390625,-0.94141 -0.683593,-1.91407 -0.882812,-2.91407 -0.199219,-1 -0.296875,-2.01171 -0.296875,-3.03125 0,-1.01953 0.09766,-2.03125 0.296875,-3.03125 0.199219,-1 0.492187,-1.97265 0.882812,-2.91406 0.390625,-0.9414 0.871094,-1.83594 1.4375,-2.6875 0.566407,-0.84765 1.210938,-1.63281 1.933594,-2.35156 0.71875,-0.72266 1.503906,-1.36719 2.351563,-1.93359 0.847656,-0.56641 1.742187,-1.04297 2.6875,-1.4336 0.941406,-0.39062 1.914062,-0.6875 2.914062,-0.88672 1,-0.19922 2.011719,-0.29687 3.03125,-0.29687 1.019531,0 2.027344,0.0977 3.03125,0.29687 1,0.19922 1.96875,0.4961 2.914062,0.88672 0.941407,0.39063 1.835938,0.86719 2.683594,1.4336 0.847656,0.5664 1.632813,1.21093 2.355469,1.93359 0.722656,0.71875 1.363281,1.50391 1.929687,2.35156 0.570313,0.85156 1.046876,1.7461 1.4375,2.6875 0.390626,0.94141 0.683594,1.91406 0.882813,2.91406 0.199219,1 0.300781,2.01172 0.300781,3.03125 z m 0,0"
     fill-opacity="1"
     fill-rule="nonzero"
     id="path6" />
  <g
     fill="#ffbd59"
     fill-opacity="1"
     id="g9"
     transform="translate(-25.280795,-116.35487)">
    <g
       transform="translate(40.850899,184.89452)"
       id="g8">
      <g
         id="g7">
        <path
           d="m 28.875,0.515625 c -4.835938,0 -9.265625,-1.125 -13.296875,-3.375 C 11.546875,-5.109375 8.34375,-8.25 5.96875,-12.28125 3.601562,-16.3125 2.421875,-20.84375 2.421875,-25.875 c 0,-5.03125 1.179687,-9.546875 3.546875,-13.546875 2.375,-4.007813 5.578125,-7.132813 9.609375,-9.375 4.03125,-2.25 8.460937,-3.375 13.296875,-3.375 4.832031,0 9.265625,1.125 13.296875,3.375 4.03125,2.242187 7.207031,5.367187 9.53125,9.375 2.320313,4 3.484375,8.515625 3.484375,13.546875 0,5.03125 -1.179688,9.5625 -3.53125,13.59375 -2.34375,4.03125 -5.523438,7.171875 -9.53125,9.421875 -4,2.25 -8.417969,3.375 -13.25,3.375 z m 0,-11.4375 c 4.101562,0 7.390625,-1.363281 9.859375,-4.09375 2.46875,-2.738281 3.703125,-6.359375 3.703125,-10.859375 0,-4.539062 -1.234375,-8.164062 -3.703125,-10.875 -2.46875,-2.707031 -5.757813,-4.0625 -9.859375,-4.0625 -4.15625,0 -7.46875,1.34375 -9.9375,4.03125 -2.460938,2.6875 -3.6875,6.324219 -3.6875,10.90625 0,4.554688 1.226562,8.183594 3.6875,10.890625 2.46875,2.710937 5.78125,4.0625 9.9375,4.0625 z m 0,0"
           id="path7" />
      </g>
    </g>
  </g>
  <g
     fill="#ffbd59"
     fill-opacity="1"
     id="g12"
     transform="translate(-25.280795,-116.35487)">
    <g
       transform="translate(98.446938,184.89452)"
       id="g11">
      <g
         id="g10">
        <path
           d="M 44.921875,-40.890625 V 0 H 32.390625 V -5.5625 C 31.117188,-3.757812 29.394531,-2.304688 27.21875,-1.203125 25.050781,-0.109375 22.644531,0.4375 20,0.4375 c -3.125,0 -5.886719,-0.691406 -8.28125,-2.078125 C 9.332031,-3.035156 7.476562,-5.050781 6.15625,-7.6875 4.832031,-10.332031 4.171875,-13.4375 4.171875,-17 v -23.890625 h 12.46875 V -18.6875 c 0,2.742188 0.707031,4.867188 2.125,6.375 1.414063,1.511719 3.316406,2.265625 5.703125,2.265625 2.445312,0 4.378906,-0.753906 5.796875,-2.265625 1.414063,-1.507812 2.125,-3.632812 2.125,-6.375 v -22.203125 z m 0,0"
           id="path9" />
      </g>
    </g>
  </g>
  <g
     fill="#ffbd59"
     fill-opacity="1"
     id="g15"
     transform="translate(-25.280795,-116.35487)">
    <g
       transform="translate(147.83591,184.89452)"
       id="g14">
      <g
         id="g13">
        <path
           d="M 27.328125,-10.625 V 0 h -6.375 C 16.410156,0 12.867188,-1.109375 10.328125,-3.328125 7.785156,-5.554688 6.515625,-9.1875 6.515625,-14.21875 V -30.484375 H 1.53125 v -10.40625 h 4.984375 v -9.96875 h 12.53125 v 9.96875 h 8.21875 v 10.40625 h -8.21875 V -14.0625 c 0,1.21875 0.289063,2.101562 0.875,2.640625 0.59375,0.53125 1.570313,0.796875 2.9375,0.796875 z m 0,0"
           id="path12" />
      </g>
    </g>
  </g>
  <g
     fill="#ffbd59"
     fill-opacity="1"
     id="g18"
     transform="translate(-25.280795,-116.35487)">
    <g
       transform="translate(177.58655,184.89452)"
       id="g17">
      <g
         id="g16">
        <path
           d="m 2.046875,-20.515625 c 0,-4.207031 0.789063,-7.894531 2.375,-11.0625 1.59375,-3.175781 3.753906,-5.617187 6.484375,-7.328125 2.738281,-1.71875 5.796875,-2.578125 9.171875,-2.578125 2.882813,0 5.410156,0.589844 7.578125,1.765625 2.175781,1.179688 3.851562,2.714844 5.03125,4.609375 v -5.78125 H 45.21875 V 0 H 32.6875 v -5.796875 c -1.230469,1.90625 -2.933594,3.449219 -5.109375,4.625 C 25.410156,0.00390625 22.882812,0.59375 20,0.59375 16.675781,0.59375 13.644531,-0.269531 10.90625,-2 8.175781,-3.738281 6.015625,-6.207031 4.421875,-9.40625 c -1.585937,-3.207031 -2.375,-6.910156 -2.375,-11.109375 z m 30.640625,0.0625 c 0,-3.125 -0.871094,-5.585937 -2.609375,-7.390625 -1.730469,-1.8125 -3.839844,-2.71875 -6.328125,-2.71875 -2.5,0 -4.621094,0.898438 -6.359375,2.6875 -1.730469,1.78125 -2.59375,4.234375 -2.59375,7.359375 0,3.125 0.863281,5.605469 2.59375,7.4375 1.738281,1.835937 3.859375,2.75 6.359375,2.75 2.488281,0 4.597656,-0.898437 6.328125,-2.703125 1.738281,-1.8125 2.609375,-4.285156 2.609375,-7.421875 z m 0,0"
           id="path15" />
      </g>
    </g>
  </g>
  <g
     fill="#211f60"
     fill-opacity="1"
     id="g21"
     transform="translate(-25.280795,-116.35487)">
    <g
       transform="translate(227.34307,184.89452)"
       id="g20">
      <g
         id="g19">
        <path
           d="m 38.6875,-35.171875 c -0.929688,-1.707031 -2.261719,-3.015625 -4,-3.921875 -1.730469,-0.90625 -3.765625,-1.359375 -6.109375,-1.359375 -4.054687,0 -7.304687,1.335937 -9.75,4 -2.4375,2.65625 -3.65625,6.210937 -3.65625,10.65625 0,4.742187 1.28125,8.445313 3.84375,11.109375 2.5625,2.65625 6.09375,3.984375 10.59375,3.984375 3.070313,0 5.671875,-0.78125 7.796875,-2.34375 2.125,-1.5625 3.675781,-3.804687 4.65625,-6.734375 H 26.15625 v -9.234375 H 53.421875 V -17.375 c -0.929687,3.136719 -2.507813,6.046875 -4.734375,8.734375 -2.21875,2.6875 -5.039062,4.859375 -8.453125,6.515625 C 36.816406,-0.46875 32.957031,0.359375 28.65625,0.359375 23.570312,0.359375 19.039062,-0.75 15.0625,-2.96875 11.082031,-5.1875 7.976562,-8.273438 5.75,-12.234375 c -2.21875,-3.957031 -3.328125,-8.476563 -3.328125,-13.5625 0,-5.082031 1.109375,-9.613281 3.328125,-13.59375 2.226562,-3.976563 5.316406,-7.078125 9.265625,-9.296875 3.957031,-2.226562 8.476563,-3.34375 13.5625,-3.34375 6.15625,0 11.34375,1.492188 15.5625,4.46875 4.226563,2.980469 7.03125,7.109375 8.40625,12.390625 z m 0,0"
           id="path18" />
      </g>
    </g>
  </g>
  <g
     fill="#211f60"
     fill-opacity="1"
     id="g24"
     transform="translate(-25.280795,-116.35487)">
    <g
       transform="translate(283.18047,184.89452)"
       id="g23">
      <g
         id="g22">
        <path
           d="M 17.078125,-51.4375 V 0 H 4.546875 v -51.4375 z m 0,0"
           id="path21" />
      </g>
    </g>
  </g>
  <g
     fill="#211f60"
     fill-opacity="1"
     id="g27"
     transform="translate(-25.280795,-116.35487)">
    <g
       transform="translate(304.7973,184.89452)"
       id="g26">
      <g
         id="g25">
        <path
           d="m 23.15625,0.515625 c -3.761719,0 -7.132812,-0.609375 -10.109375,-1.828125 -2.980469,-1.226562 -5.367187,-3.035156 -7.15625,-5.421875 -1.78125,-2.394531 -2.71875,-5.28125 -2.8125,-8.65625 h 13.34375 c 0.1875,1.90625 0.84375,3.359375 1.96875,4.359375 1.125,1 2.59375,1.5 4.40625,1.5 1.851563,0 3.316406,-0.425781 4.390625,-1.28125 1.070312,-0.851562 1.609375,-2.035156 1.609375,-3.546875 0,-1.269531 -0.429687,-2.320313 -1.28125,-3.15625 -0.855469,-0.832031 -1.90625,-1.515625 -3.15625,-2.046875 -1.242187,-0.539062 -3.011719,-1.148438 -5.3125,-1.828125 -3.324219,-1.03125 -6.039063,-2.054687 -8.140625,-3.078125 C 8.8125,-25.5 7.003906,-27.015625 5.484375,-29.015625 c -1.511719,-2.007813 -2.265625,-4.625 -2.265625,-7.84375 0,-4.789063 1.734375,-8.539063 5.203125,-11.25 3.46875,-2.707031 7.988281,-4.0625 13.5625,-4.0625 5.664063,0 10.234375,1.355469 13.703125,4.0625 3.46875,2.710937 5.320312,6.484375 5.5625,11.328125 H 27.703125 c -0.105469,-1.664062 -0.71875,-2.972656 -1.84375,-3.921875 -1.117187,-0.957031 -2.554687,-1.4375 -4.3125,-1.4375 -1.523437,0 -2.746094,0.40625 -3.671875,1.21875 -0.929688,0.804687 -1.390625,1.960937 -1.390625,3.46875 0,1.667969 0.78125,2.964844 2.34375,3.890625 1.5625,0.929688 4.003906,1.929688 7.328125,3 3.320312,1.125 6.019531,2.203125 8.09375,3.234375 2.082031,1.023437 3.878906,2.511719 5.390625,4.46875 1.519531,1.949219 2.28125,4.464844 2.28125,7.546875 0,2.929688 -0.746094,5.589844 -2.234375,7.984375 -1.492188,2.398437 -3.652344,4.304687 -6.484375,5.71875 -2.835937,1.417969 -6.183594,2.125 -10.046875,2.125 z m 0,0"
           id="path24" />
      </g>
    </g>
  </g>
  <g
     clip-path="url(#ba4a575486)"
     id="g30"
     transform="translate(-25.280795,-116.35487)">
    <g
       clip-path="url(#69ddd59572)"
       id="g29">
      <g
         clip-path="url(#0f1bb6dfa7)"
         id="g28">
        <path
           fill="#ffbd59"
           d="m 288.24219,162.26953 c 0,0 3.58203,-8.03516 9.15625,-20.53516 -1.08203,5.05469 -2.16407,10.10938 -3.24219,15.16407 2.03516,-0.0703 4.06641,-0.14453 6.10156,-0.21485 -4.79297,10.64453 -9.16797,20.35938 -9.16797,20.36328 0,-0.004 3.33594,-14.91406 3.33594,-14.91406 0,0.004 -6.18359,0.13672 -6.18359,0.13672 z m 0,0"
           fill-opacity="1"
           fill-rule="nonzero"
           id="path27" />
      </g>
    </g>
  </g>
  <g
     fill="#211f60"
     fill-opacity="1"
     id="g33"
     transform="translate(-25.280795,-116.35487)">
    <g
       transform="translate(104.71193,196.62969)"
       id="g32">
      <g
         id="g31">
        <path
           d="m 2.171875,-4.34375 c 0.1875,-0.289062 0.421875,-0.515625 0.703125,-0.671875 0.28125,-0.164063 0.59375,-0.25 0.9375,-0.25 v 1.6875 H 3.375 c -0.398438,0 -0.699219,0.089844 -0.90625,0.265625 -0.199219,0.167969 -0.296875,0.464844 -0.296875,0.890625 V 0 h -1.59375 v -5.21875 h 1.59375 z m 0,0"
           id="path30" />
      </g>
    </g>
  </g>
  <g
     fill="#211f60"
     fill-opacity="1"
     id="g36"
     transform="translate(-25.280795,-116.35487)">
    <g
       transform="translate(108.71055,196.62969)"
       id="g35">
      <g
         id="g34">
        <path
           d="M 5.734375,-5.21875 V 0 H 4.125 V -0.703125 C 3.96875,-0.472656 3.75,-0.285156 3.46875,-0.140625 3.195312,-0.00390625 2.890625,0.0625 2.546875,0.0625 c -0.398437,0 -0.75,-0.0859375 -1.0625,-0.265625 C 1.179688,-0.378906 0.945312,-0.632812 0.78125,-0.96875 0.613281,-1.3125 0.53125,-1.710938 0.53125,-2.171875 V -5.21875 H 2.125 V -2.375 c 0,0.34375 0.085938,0.617188 0.265625,0.8125 0.175781,0.1875 0.421875,0.28125 0.734375,0.28125 0.3125,0 0.554688,-0.09375 0.734375,-0.28125 C 4.035156,-1.757812 4.125,-2.03125 4.125,-2.375 v -2.84375 z m 0,0"
           id="path33" />
      </g>
    </g>
  </g>
  <g
     fill="#211f60"
     fill-opacity="1"
     id="g39"
     transform="translate(-25.280795,-116.35487)">
    <g
       transform="translate(115.00743,196.62969)"
       id="g38">
      <g
         id="g37">
        <path
           d="m 2.171875,-4.34375 c 0.1875,-0.289062 0.421875,-0.515625 0.703125,-0.671875 0.28125,-0.164063 0.59375,-0.25 0.9375,-0.25 v 1.6875 H 3.375 c -0.398438,0 -0.699219,0.089844 -0.90625,0.265625 -0.199219,0.167969 -0.296875,0.464844 -0.296875,0.890625 V 0 h -1.59375 v -5.21875 h 1.59375 z m 0,0"
           id="path36" />
      </g>
    </g>
  </g>
  <g
     fill="#211f60"
     fill-opacity="1"
     id="g42"
     transform="translate(-25.280795,-116.35487)">
    <g
       transform="translate(119.00605,196.62969)"
       id="g41">
      <g
         id="g40">
        <path
           d="M 0.265625,-2.609375 C 0.265625,-3.148438 0.363281,-3.625 0.5625,-4.03125 0.769531,-4.4375 1.046875,-4.742188 1.390625,-4.953125 1.742188,-5.171875 2.132812,-5.28125 2.5625,-5.28125 c 0.363281,0 0.679688,0.074219 0.953125,0.21875 0.28125,0.148438 0.5,0.34375 0.65625,0.59375 v -0.75 h 1.59375 V 0 h -1.59375 v -0.734375 c -0.15625,0.242187 -0.375,0.4375 -0.65625,0.59375 -0.273437,0.14453125 -0.59375,0.21875 -0.96875,0.21875 -0.417969,0 -0.804687,-0.109375 -1.15625,-0.328125 -0.34375,-0.226562 -0.621094,-0.546875 -0.828125,-0.953125 -0.199219,-0.40625 -0.296875,-0.875 -0.296875,-1.40625 z m 3.90625,0 c 0,-0.394531 -0.117187,-0.707031 -0.34375,-0.9375 -0.21875,-0.226563 -0.484375,-0.34375 -0.796875,-0.34375 -0.324219,0 -0.59375,0.117187 -0.8125,0.34375 -0.21875,0.21875 -0.328125,0.53125 -0.328125,0.9375 0,0.398437 0.109375,0.714844 0.328125,0.953125 0.21875,0.230469 0.488281,0.34375 0.8125,0.34375 0.3125,0 0.578125,-0.113281 0.796875,-0.34375 0.226563,-0.238281 0.34375,-0.554688 0.34375,-0.953125 z m 0,0"
           id="path39" />
      </g>
    </g>
  </g>
  <g
     fill="#211f60"
     fill-opacity="1"
     id="g45"
     transform="translate(-25.280795,-116.35487)">
    <g
       transform="translate(125.34964,196.62969)"
       id="g44">
      <g
         id="g43">
        <path
           d="M 2.171875,-6.921875 V 0 h -1.59375 v -6.921875 z m 0,0"
           id="path42" />
      </g>
    </g>
  </g>
  <g
     fill="#211f60"
     fill-opacity="1"
     id="g48"
     transform="translate(-25.280795,-116.35487)">
    <g
       transform="translate(128.10569,196.62969)"
       id="g47">
      <g
         id="g46">
        <path
           d="M 2.296875,-1.46875 1.265625,1.203125 H 0.25 L 0.78125,-1.46875 Z m 0,0"
           id="path45" />
      </g>
    </g>
  </g>
  <g
     fill="#211f60"
     fill-opacity="1"
     id="g51"
     transform="translate(-25.280795,-116.35487)">
    <g
       transform="translate(130.78701,196.62969)"
       id="g50">
      <g
         id="g49" />
    </g>
  </g>
  <g
     fill="#211f60"
     fill-opacity="1"
     id="g54"
     transform="translate(-25.280795,-116.35487)">
    <g
       transform="translate(132.76764,196.62969)"
       id="g53">
      <g
         id="g52">
        <path
           d="m 2.171875,-4.34375 c 0.1875,-0.289062 0.421875,-0.515625 0.703125,-0.671875 0.28125,-0.164063 0.59375,-0.25 0.9375,-0.25 v 1.6875 H 3.375 c -0.398438,0 -0.699219,0.089844 -0.90625,0.265625 -0.199219,0.167969 -0.296875,0.464844 -0.296875,0.890625 V 0 h -1.59375 v -5.21875 h 1.59375 z m 0,0"
           id="path51" />
      </g>
    </g>
  </g>
  <g
     fill="#211f60"
     fill-opacity="1"
     id="g57"
     transform="translate(-25.280795,-116.35487)">
    <g
       transform="translate(136.76625,196.62969)"
       id="g56">
      <g
         id="g55">
        <path
           d="m 5.5,-2.6875 c 0,0.148438 -0.011719,0.304688 -0.03125,0.46875 h -3.625 c 0.03125,0.324219 0.132812,0.574219 0.3125,0.75 0.1875,0.167969 0.414062,0.25 0.6875,0.25 0.394531,0 0.671875,-0.171875 0.828125,-0.515625 H 5.375 c -0.09375,0.34375 -0.257812,0.65625 -0.484375,0.9375 -0.21875,0.273437 -0.5,0.484375 -0.84375,0.640625 C 3.703125,0 3.316406,0.078125 2.890625,0.078125 2.378906,0.078125 1.925781,-0.03125 1.53125,-0.25 1.132812,-0.46875 0.820312,-0.78125 0.59375,-1.1875 0.375,-1.59375 0.265625,-2.066406 0.265625,-2.609375 0.265625,-3.148438 0.375,-3.625 0.59375,-4.03125 0.8125,-4.4375 1.117188,-4.742188 1.515625,-4.953125 c 0.40625,-0.21875 0.863281,-0.328125 1.375,-0.328125 0.507813,0 0.957031,0.105469 1.34375,0.3125 C 4.628906,-4.757812 4.9375,-4.457031 5.15625,-4.0625 5.382812,-3.664062 5.5,-3.207031 5.5,-2.6875 Z M 3.859375,-3.109375 c 0,-0.269531 -0.09375,-0.488281 -0.28125,-0.65625 -0.1875,-0.164063 -0.421875,-0.25 -0.703125,-0.25 -0.273438,0 -0.5,0.078125 -0.6875,0.234375 -0.179688,0.15625 -0.289062,0.382812 -0.328125,0.671875 z m 0,0"
           id="path54" />
      </g>
    </g>
  </g>
  <g
     fill="#211f60"
     fill-opacity="1"
     id="g60"
     transform="translate(-25.280795,-116.35487)">
    <g
       transform="translate(142.52127,196.62969)"
       id="g59">
      <g
         id="g58">
        <path
           d="m 7.234375,-5.265625 c 0.644531,0 1.160156,0.199219 1.546875,0.59375 0.382812,0.386719 0.578125,0.929687 0.578125,1.625 V 0 h -1.59375 v -2.828125 c 0,-0.332031 -0.089844,-0.59375 -0.265625,-0.78125 -0.179688,-0.1875 -0.421875,-0.28125 -0.734375,-0.28125 -0.3125,0 -0.558594,0.09375 -0.734375,0.28125 -0.179688,0.1875 -0.265625,0.449219 -0.265625,0.78125 V 0 h -1.59375 v -2.828125 c 0,-0.332031 -0.089844,-0.59375 -0.265625,-0.78125 -0.179688,-0.1875 -0.421875,-0.28125 -0.734375,-0.28125 -0.3125,0 -0.558594,0.09375 -0.734375,0.28125 -0.179688,0.1875 -0.265625,0.449219 -0.265625,0.78125 V 0 h -1.59375 v -5.21875 h 1.59375 v 0.65625 c 0.164063,-0.21875 0.378906,-0.390625 0.640625,-0.515625 0.257812,-0.125 0.554688,-0.1875 0.890625,-0.1875 0.382813,0 0.734375,0.085937 1.046875,0.25 0.3125,0.167969 0.550781,0.40625 0.71875,0.71875 0.1875,-0.289063 0.4375,-0.523437 0.75,-0.703125 0.3125,-0.175781 0.648438,-0.265625 1.015625,-0.265625 z m 0,0"
           id="path57" />
      </g>
    </g>
  </g>
  <g
     fill="#211f60"
     fill-opacity="1"
     id="g63"
     transform="translate(-25.280795,-116.35487)">
    <g
       transform="translate(152.41504,196.62969)"
       id="g62">
      <g
         id="g61">
        <path
           d="m 2.953125,0.078125 c -0.511719,0 -0.96875,-0.109375 -1.375,-0.328125 -0.40625,-0.21875 -0.730469,-0.53125 -0.96875,-0.9375 -0.230469,-0.40625 -0.34375,-0.878906 -0.34375,-1.421875 0,-0.53125 0.113281,-1 0.34375,-1.40625 0.238281,-0.414063 0.5625,-0.726563 0.96875,-0.9375 0.414063,-0.21875 0.878906,-0.328125 1.390625,-0.328125 0.507812,0 0.96875,0.109375 1.375,0.328125 0.414062,0.210937 0.742188,0.523437 0.984375,0.9375 0.238281,0.40625 0.359375,0.875 0.359375,1.40625 0,0.542969 -0.121094,1.015625 -0.359375,1.421875 C 5.085938,-0.78125 4.757812,-0.46875 4.34375,-0.25 3.925781,-0.03125 3.460938,0.078125 2.953125,0.078125 Z m 0,-1.390625 c 0.300781,0 0.5625,-0.109375 0.78125,-0.328125 C 3.953125,-1.867188 4.0625,-2.191406 4.0625,-2.609375 4.0625,-3.023438 3.953125,-3.34375 3.734375,-3.5625 3.523438,-3.789062 3.269531,-3.90625 2.96875,-3.90625 c -0.3125,0 -0.574219,0.109375 -0.78125,0.328125 -0.199219,0.21875 -0.296875,0.542969 -0.296875,0.96875 0,0.417969 0.097656,0.742187 0.296875,0.96875 0.207031,0.21875 0.460938,0.328125 0.765625,0.328125 z m 0,0"
           id="path60" />
      </g>
    </g>
  </g>
  <g
     fill="#211f60"
     fill-opacity="1"
     id="g66"
     transform="translate(-25.280795,-116.35487)">
    <g
       transform="translate(158.36625,196.62969)"
       id="g65">
      <g
         id="g64">
        <path
           d="M 3.484375,-1.359375 V 0 h -0.8125 C 2.085938,0 1.632812,-0.140625 1.3125,-0.421875 0.988281,-0.703125 0.828125,-1.164062 0.828125,-1.8125 v -2.078125 h -0.625 V -5.21875 h 0.625 v -1.265625 h 1.59375 V -5.21875 H 3.46875 v 1.328125 H 2.421875 v 2.09375 c 0,0.15625 0.035156,0.273437 0.109375,0.34375 0.082031,0.0625 0.210938,0.09375 0.390625,0.09375 z m 0,0"
           id="path63" />
      </g>
    </g>
  </g>
  <g
     fill="#211f60"
     fill-opacity="1"
     id="g69"
     transform="translate(-25.280795,-116.35487)">
    <g
       transform="translate(162.15933,196.62969)"
       id="g68">
      <g
         id="g67">
        <path
           d="m 5.5,-2.6875 c 0,0.148438 -0.011719,0.304688 -0.03125,0.46875 h -3.625 c 0.03125,0.324219 0.132812,0.574219 0.3125,0.75 0.1875,0.167969 0.414062,0.25 0.6875,0.25 0.394531,0 0.671875,-0.171875 0.828125,-0.515625 H 5.375 c -0.09375,0.34375 -0.257812,0.65625 -0.484375,0.9375 -0.21875,0.273437 -0.5,0.484375 -0.84375,0.640625 C 3.703125,0 3.316406,0.078125 2.890625,0.078125 2.378906,0.078125 1.925781,-0.03125 1.53125,-0.25 1.132812,-0.46875 0.820312,-0.78125 0.59375,-1.1875 0.375,-1.59375 0.265625,-2.066406 0.265625,-2.609375 0.265625,-3.148438 0.375,-3.625 0.59375,-4.03125 0.8125,-4.4375 1.117188,-4.742188 1.515625,-4.953125 c 0.40625,-0.21875 0.863281,-0.328125 1.375,-0.328125 0.507813,0 0.957031,0.105469 1.34375,0.3125 C 4.628906,-4.757812 4.9375,-4.457031 5.15625,-4.0625 5.382812,-3.664062 5.5,-3.207031 5.5,-2.6875 Z M 3.859375,-3.109375 c 0,-0.269531 -0.09375,-0.488281 -0.28125,-0.65625 -0.1875,-0.164063 -0.421875,-0.25 -0.703125,-0.25 -0.273438,0 -0.5,0.078125 -0.6875,0.234375 -0.179688,0.15625 -0.289062,0.382812 -0.328125,0.671875 z m 0,0"
           id="path66" />
      </g>
    </g>
  </g>
  <g
     fill="#211f60"
     fill-opacity="1"
     id="g72"
     transform="translate(-25.280795,-116.35487)">
    <g
       transform="translate(167.91436,196.62969)"
       id="g71">
      <g
         id="g70">
        <path
           d="M 2.296875,-1.46875 1.265625,1.203125 H 0.25 L 0.78125,-1.46875 Z m 0,0"
           id="path69" />
      </g>
    </g>
  </g>
  <g
     fill="#211f60"
     fill-opacity="1"
     id="g75"
     transform="translate(-25.280795,-116.35487)">
    <g
       transform="translate(170.59567,196.62969)"
       id="g74">
      <g
         id="g73" />
    </g>
  </g>
  <g
     fill="#211f60"
     fill-opacity="1"
     id="g78"
     transform="translate(-25.280795,-116.35487)">
    <g
       transform="translate(172.5763,196.62969)"
       id="g77">
      <g
         id="g76">
        <path
           d="M 0.265625,-2.609375 C 0.265625,-3.148438 0.363281,-3.625 0.5625,-4.03125 0.769531,-4.4375 1.046875,-4.742188 1.390625,-4.953125 1.742188,-5.171875 2.132812,-5.28125 2.5625,-5.28125 c 0.363281,0 0.679688,0.074219 0.953125,0.21875 0.28125,0.148438 0.5,0.34375 0.65625,0.59375 v -0.75 h 1.59375 V 0 h -1.59375 v -0.734375 c -0.15625,0.242187 -0.375,0.4375 -0.65625,0.59375 -0.273437,0.14453125 -0.59375,0.21875 -0.96875,0.21875 -0.417969,0 -0.804687,-0.109375 -1.15625,-0.328125 -0.34375,-0.226562 -0.621094,-0.546875 -0.828125,-0.953125 -0.199219,-0.40625 -0.296875,-0.875 -0.296875,-1.40625 z m 3.90625,0 c 0,-0.394531 -0.117187,-0.707031 -0.34375,-0.9375 -0.21875,-0.226563 -0.484375,-0.34375 -0.796875,-0.34375 -0.324219,0 -0.59375,0.117187 -0.8125,0.34375 -0.21875,0.21875 -0.328125,0.53125 -0.328125,0.9375 0,0.398437 0.109375,0.714844 0.328125,0.953125 0.21875,0.230469 0.488281,0.34375 0.8125,0.34375 0.3125,0 0.578125,-0.113281 0.796875,-0.34375 0.226563,-0.238281 0.34375,-0.554688 0.34375,-0.953125 z m 0,0"
           id="path75" />
      </g>
    </g>
  </g>
  <g
     fill="#211f60"
     fill-opacity="1"
     id="g81"
     transform="translate(-25.280795,-116.35487)">
    <g
       transform="translate(178.9199,196.62969)"
       id="g80">
      <g
         id="g79">
        <path
           d="m 3.75,-5.265625 c 0.613281,0 1.101562,0.199219 1.46875,0.59375 0.363281,0.398437 0.546875,0.9375 0.546875,1.625 V 0 h -1.59375 v -2.828125 c 0,-0.351563 -0.089844,-0.625 -0.265625,-0.8125 C 3.726562,-3.835938 3.484375,-3.9375 3.171875,-3.9375 c -0.304687,0 -0.546875,0.101562 -0.734375,0.296875 -0.179688,0.1875 -0.265625,0.460937 -0.265625,0.8125 V 0 h -1.59375 v -5.21875 h 1.59375 v 0.703125 C 2.335938,-4.753906 2.554688,-4.9375 2.828125,-5.0625 3.109375,-5.195312 3.414062,-5.265625 3.75,-5.265625 Z m 0,0"
           id="path78" />
      </g>
    </g>
  </g>
  <g
     fill="#211f60"
     fill-opacity="1"
     id="g84"
     transform="translate(-25.280795,-116.35487)">
    <g
       transform="translate(185.21678,196.62969)"
       id="g83">
      <g
         id="g82">
        <path
           d="M 0.265625,-2.609375 C 0.265625,-3.148438 0.363281,-3.625 0.5625,-4.03125 0.769531,-4.4375 1.046875,-4.742188 1.390625,-4.953125 1.742188,-5.171875 2.132812,-5.28125 2.5625,-5.28125 c 0.34375,0 0.65625,0.074219 0.9375,0.21875 0.28125,0.136719 0.503906,0.324219 0.671875,0.5625 v -2.421875 h 1.59375 V 0 h -1.59375 v -0.75 c -0.15625,0.25 -0.375,0.453125 -0.65625,0.609375 C 3.242188,0.00390625 2.925781,0.078125 2.5625,0.078125 2.132812,0.078125 1.742188,-0.03125 1.390625,-0.25 1.046875,-0.476562 0.769531,-0.796875 0.5625,-1.203125 c -0.199219,-0.40625 -0.296875,-0.875 -0.296875,-1.40625 z m 3.90625,0 c 0,-0.394531 -0.117187,-0.707031 -0.34375,-0.9375 -0.21875,-0.226563 -0.484375,-0.34375 -0.796875,-0.34375 -0.324219,0 -0.59375,0.117187 -0.8125,0.34375 -0.21875,0.21875 -0.328125,0.53125 -0.328125,0.9375 0,0.398437 0.109375,0.714844 0.328125,0.953125 0.21875,0.230469 0.488281,0.34375 0.8125,0.34375 0.3125,0 0.578125,-0.113281 0.796875,-0.34375 0.226563,-0.238281 0.34375,-0.554688 0.34375,-0.953125 z m 0,0"
           id="path81" />
      </g>
    </g>
  </g>
  <g
     fill="#211f60"
     fill-opacity="1"
     id="g87"
     transform="translate(-25.280795,-116.35487)">
    <g
       transform="translate(191.56038,196.62969)"
       id="g86">
      <g
         id="g85" />
    </g>
  </g>
  <g
     fill="#211f60"
     fill-opacity="1"
     id="g90"
     transform="translate(-25.280795,-116.35487)">
    <g
       transform="translate(193.541,196.62969)"
       id="g89">
      <g
         id="g88">
        <path
           d="m 2.171875,-4.34375 c 0.1875,-0.289062 0.421875,-0.515625 0.703125,-0.671875 0.28125,-0.164063 0.59375,-0.25 0.9375,-0.25 v 1.6875 H 3.375 c -0.398438,0 -0.699219,0.089844 -0.90625,0.265625 -0.199219,0.167969 -0.296875,0.464844 -0.296875,0.890625 V 0 h -1.59375 v -5.21875 h 1.59375 z m 0,0"
           id="path87" />
      </g>
    </g>
  </g>
  <g
     fill="#211f60"
     fill-opacity="1"
     id="g93"
     transform="translate(-25.280795,-116.35487)">
    <g
       transform="translate(197.53962,196.62969)"
       id="g92">
      <g
         id="g91">
        <path
           d="m 5.5,-2.6875 c 0,0.148438 -0.011719,0.304688 -0.03125,0.46875 h -3.625 c 0.03125,0.324219 0.132812,0.574219 0.3125,0.75 0.1875,0.167969 0.414062,0.25 0.6875,0.25 0.394531,0 0.671875,-0.171875 0.828125,-0.515625 H 5.375 c -0.09375,0.34375 -0.257812,0.65625 -0.484375,0.9375 -0.21875,0.273437 -0.5,0.484375 -0.84375,0.640625 C 3.703125,0 3.316406,0.078125 2.890625,0.078125 2.378906,0.078125 1.925781,-0.03125 1.53125,-0.25 1.132812,-0.46875 0.820312,-0.78125 0.59375,-1.1875 0.375,-1.59375 0.265625,-2.066406 0.265625,-2.609375 0.265625,-3.148438 0.375,-3.625 0.59375,-4.03125 0.8125,-4.4375 1.117188,-4.742188 1.515625,-4.953125 c 0.40625,-0.21875 0.863281,-0.328125 1.375,-0.328125 0.507813,0 0.957031,0.105469 1.34375,0.3125 C 4.628906,-4.757812 4.9375,-4.457031 5.15625,-4.0625 5.382812,-3.664062 5.5,-3.207031 5.5,-2.6875 Z M 3.859375,-3.109375 c 0,-0.269531 -0.09375,-0.488281 -0.28125,-0.65625 -0.1875,-0.164063 -0.421875,-0.25 -0.703125,-0.25 -0.273438,0 -0.5,0.078125 -0.6875,0.234375 -0.179688,0.15625 -0.289062,0.382812 -0.328125,0.671875 z m 0,0"
           id="path90" />
      </g>
    </g>
  </g>
  <g
     fill="#211f60"
     fill-opacity="1"
     id="g96"
     transform="translate(-25.280795,-116.35487)">
    <g
       transform="translate(203.29464,196.62969)"
       id="g95">
      <g
         id="g94">
        <path
           d="M 2.703125,0.078125 C 2.242188,0.078125 1.835938,0 1.484375,-0.15625 1.128906,-0.3125 0.847656,-0.523438 0.640625,-0.796875 0.441406,-1.066406 0.328125,-1.367188 0.296875,-1.703125 H 1.875 c 0.019531,0.179687 0.101562,0.324219 0.25,0.4375 0.15625,0.105469 0.34375,0.15625 0.5625,0.15625 0.195312,0 0.347656,-0.035156 0.453125,-0.109375 0.113281,-0.082031 0.171875,-0.179688 0.171875,-0.296875 0,-0.15625 -0.078125,-0.269531 -0.234375,-0.34375 C 2.921875,-1.929688 2.664062,-2.007812 2.3125,-2.09375 1.9375,-2.175781 1.625,-2.265625 1.375,-2.359375 1.132812,-2.460938 0.921875,-2.617188 0.734375,-2.828125 0.554688,-3.035156 0.46875,-3.316406 0.46875,-3.671875 c 0,-0.300781 0.082031,-0.570313 0.25,-0.8125 0.164062,-0.25 0.40625,-0.441406 0.71875,-0.578125 0.320312,-0.144531 0.707031,-0.21875 1.15625,-0.21875 0.644531,0 1.15625,0.164062 1.53125,0.484375 0.382812,0.324219 0.601562,0.75 0.65625,1.28125 H 3.3125 C 3.28125,-3.691406 3.195312,-3.832031 3.0625,-3.9375 2.9375,-4.050781 2.765625,-4.109375 2.546875,-4.109375 c -0.1875,0 -0.335937,0.039063 -0.4375,0.109375 -0.09375,0.074219 -0.140625,0.171875 -0.140625,0.296875 0,0.15625 0.078125,0.273437 0.234375,0.34375 0.15625,0.074219 0.398437,0.148437 0.734375,0.21875 0.382812,0.105469 0.695312,0.203125 0.9375,0.296875 0.25,0.09375 0.460938,0.25 0.640625,0.46875 0.1875,0.210938 0.285156,0.496094 0.296875,0.859375 0,0.304687 -0.089844,0.574219 -0.265625,0.8125 C 4.378906,-0.460938 4.132812,-0.269531 3.8125,-0.125 3.488281,0.0078125 3.117188,0.078125 2.703125,0.078125 Z m 0,0"
           id="path93" />
      </g>
    </g>
  </g>
  <g
     fill="#211f60"
     fill-opacity="1"
     id="g99"
     transform="translate(-25.280795,-116.35487)">
    <g
       transform="translate(208.50778,196.62969)"
       id="g98">
      <g
         id="g97">
        <path
           d="m 5.5,-2.6875 c 0,0.148438 -0.011719,0.304688 -0.03125,0.46875 h -3.625 c 0.03125,0.324219 0.132812,0.574219 0.3125,0.75 0.1875,0.167969 0.414062,0.25 0.6875,0.25 0.394531,0 0.671875,-0.171875 0.828125,-0.515625 H 5.375 c -0.09375,0.34375 -0.257812,0.65625 -0.484375,0.9375 -0.21875,0.273437 -0.5,0.484375 -0.84375,0.640625 C 3.703125,0 3.316406,0.078125 2.890625,0.078125 2.378906,0.078125 1.925781,-0.03125 1.53125,-0.25 1.132812,-0.46875 0.820312,-0.78125 0.59375,-1.1875 0.375,-1.59375 0.265625,-2.066406 0.265625,-2.609375 0.265625,-3.148438 0.375,-3.625 0.59375,-4.03125 0.8125,-4.4375 1.117188,-4.742188 1.515625,-4.953125 c 0.40625,-0.21875 0.863281,-0.328125 1.375,-0.328125 0.507813,0 0.957031,0.105469 1.34375,0.3125 C 4.628906,-4.757812 4.9375,-4.457031 5.15625,-4.0625 5.382812,-3.664062 5.5,-3.207031 5.5,-2.6875 Z M 3.859375,-3.109375 c 0,-0.269531 -0.09375,-0.488281 -0.28125,-0.65625 -0.1875,-0.164063 -0.421875,-0.25 -0.703125,-0.25 -0.273438,0 -0.5,0.078125 -0.6875,0.234375 -0.179688,0.15625 -0.289062,0.382812 -0.328125,0.671875 z m 0,0"
           id="path96" />
      </g>
    </g>
  </g>
  <g
     fill="#211f60"
     fill-opacity="1"
     id="g102"
     transform="translate(-25.280795,-116.35487)">
    <g
       transform="translate(214.2628,196.62969)"
       id="g101">
      <g
         id="g100">
        <path
           d="m 2.171875,-4.34375 c 0.1875,-0.289062 0.421875,-0.515625 0.703125,-0.671875 0.28125,-0.164063 0.59375,-0.25 0.9375,-0.25 v 1.6875 H 3.375 c -0.398438,0 -0.699219,0.089844 -0.90625,0.265625 -0.199219,0.167969 -0.296875,0.464844 -0.296875,0.890625 V 0 h -1.59375 v -5.21875 h 1.59375 z m 0,0"
           id="path99" />
      </g>
    </g>
  </g>
  <g
     fill="#211f60"
     fill-opacity="1"
     id="g105"
     transform="translate(-25.280795,-116.35487)">
    <g
       transform="translate(218.26142,196.62969)"
       id="g104">
      <g
         id="g103">
        <path
           d="M 2.921875,-1.5 4.0625,-5.21875 H 5.75 L 3.90625,0 H 1.9375 L 0.078125,-5.21875 h 1.71875 z m 0,0"
           id="path102" />
      </g>
    </g>
  </g>
  <g
     fill="#211f60"
     fill-opacity="1"
     id="g108"
     transform="translate(-25.280795,-116.35487)">
    <g
       transform="translate(224.10986,196.62969)"
       id="g107">
      <g
         id="g106">
        <path
           d="m 5.5,-2.6875 c 0,0.148438 -0.011719,0.304688 -0.03125,0.46875 h -3.625 c 0.03125,0.324219 0.132812,0.574219 0.3125,0.75 0.1875,0.167969 0.414062,0.25 0.6875,0.25 0.394531,0 0.671875,-0.171875 0.828125,-0.515625 H 5.375 c -0.09375,0.34375 -0.257812,0.65625 -0.484375,0.9375 -0.21875,0.273437 -0.5,0.484375 -0.84375,0.640625 C 3.703125,0 3.316406,0.078125 2.890625,0.078125 2.378906,0.078125 1.925781,-0.03125 1.53125,-0.25 1.132812,-0.46875 0.820312,-0.78125 0.59375,-1.1875 0.375,-1.59375 0.265625,-2.066406 0.265625,-2.609375 0.265625,-3.148438 0.375,-3.625 0.59375,-4.03125 0.8125,-4.4375 1.117188,-4.742188 1.515625,-4.953125 c 0.40625,-0.21875 0.863281,-0.328125 1.375,-0.328125 0.507813,0 0.957031,0.105469 1.34375,0.3125 C 4.628906,-4.757812 4.9375,-4.457031 5.15625,-4.0625 5.382812,-3.664062 5.5,-3.207031 5.5,-2.6875 Z M 3.859375,-3.109375 c 0,-0.269531 -0.09375,-0.488281 -0.28125,-0.65625 -0.1875,-0.164063 -0.421875,-0.25 -0.703125,-0.25 -0.273438,0 -0.5,0.078125 -0.6875,0.234375 -0.179688,0.15625 -0.289062,0.382812 -0.328125,0.671875 z m 0,0"
           id="path105" />
      </g>
    </g>
  </g>
  <g
     fill="#211f60"
     fill-opacity="1"
     id="g111"
     transform="translate(-25.280795,-116.35487)">
    <g
       transform="translate(229.86488,196.62969)"
       id="g110">
      <g
         id="g109" />
    </g>
  </g>
  <g
     fill="#211f60"
     fill-opacity="1"
     id="g114"
     transform="translate(-25.280795,-116.35487)">
    <g
       transform="translate(231.84551,196.62969)"
       id="g113">
      <g
         id="g112">
        <path
           d="m 2.171875,-4.46875 c 0.15625,-0.25 0.367187,-0.445312 0.640625,-0.59375 0.28125,-0.144531 0.601562,-0.21875 0.96875,-0.21875 0.425781,0 0.8125,0.109375 1.15625,0.328125 0.351562,0.210937 0.628906,0.515625 0.828125,0.921875 0.207031,0.40625 0.3125,0.882812 0.3125,1.421875 0,0.53125 -0.105469,1 -0.3125,1.40625 C 5.566406,-0.796875 5.289062,-0.476562 4.9375,-0.25 4.59375,-0.03125 4.207031,0.078125 3.78125,0.078125 c -0.355469,0 -0.671875,-0.07421875 -0.953125,-0.21875 -0.28125,-0.15625 -0.5,-0.351563 -0.65625,-0.59375 v 3.21875 H 0.578125 V -5.21875 h 1.59375 z m 2.28125,1.859375 c 0,-0.40625 -0.109375,-0.71875 -0.328125,-0.9375 -0.21875,-0.226563 -0.492188,-0.34375 -0.8125,-0.34375 -0.324219,0 -0.59375,0.117187 -0.8125,0.34375 -0.21875,0.230469 -0.328125,0.542969 -0.328125,0.9375 0,0.398437 0.109375,0.714844 0.328125,0.953125 0.21875,0.230469 0.488281,0.34375 0.8125,0.34375 0.3125,0 0.578125,-0.113281 0.796875,-0.34375 0.226563,-0.238281 0.34375,-0.554688 0.34375,-0.953125 z m 0,0"
           id="path111" />
      </g>
    </g>
  </g>
  <g
     fill="#211f60"
     fill-opacity="1"
     id="g117"
     transform="translate(-25.280795,-116.35487)">
    <g
       transform="translate(238.1891,196.62969)"
       id="g116">
      <g
         id="g115">
        <path
           d="m 2.953125,0.078125 c -0.511719,0 -0.96875,-0.109375 -1.375,-0.328125 -0.40625,-0.21875 -0.730469,-0.53125 -0.96875,-0.9375 -0.230469,-0.40625 -0.34375,-0.878906 -0.34375,-1.421875 0,-0.53125 0.113281,-1 0.34375,-1.40625 0.238281,-0.414063 0.5625,-0.726563 0.96875,-0.9375 0.414063,-0.21875 0.878906,-0.328125 1.390625,-0.328125 0.507812,0 0.96875,0.109375 1.375,0.328125 0.414062,0.210937 0.742188,0.523437 0.984375,0.9375 0.238281,0.40625 0.359375,0.875 0.359375,1.40625 0,0.542969 -0.121094,1.015625 -0.359375,1.421875 C 5.085938,-0.78125 4.757812,-0.46875 4.34375,-0.25 3.925781,-0.03125 3.460938,0.078125 2.953125,0.078125 Z m 0,-1.390625 c 0.300781,0 0.5625,-0.109375 0.78125,-0.328125 C 3.953125,-1.867188 4.0625,-2.191406 4.0625,-2.609375 4.0625,-3.023438 3.953125,-3.34375 3.734375,-3.5625 3.523438,-3.789062 3.269531,-3.90625 2.96875,-3.90625 c -0.3125,0 -0.574219,0.109375 -0.78125,0.328125 -0.199219,0.21875 -0.296875,0.542969 -0.296875,0.96875 0,0.417969 0.097656,0.742187 0.296875,0.96875 0.207031,0.21875 0.460938,0.328125 0.765625,0.328125 z m 0,0"
           id="path114" />
      </g>
    </g>
  </g>
  <g
     fill="#211f60"
     fill-opacity="1"
     id="g120"
     transform="translate(-25.280795,-116.35487)">
    <g
       transform="translate(244.14032,196.62969)"
       id="g119">
      <g
         id="g118">
        <path
           d="M 8.0625,-5.21875 6.65625,0 H 4.890625 L 4.0625,-3.375 3.21875,0 H 1.453125 L 0.03125,-5.21875 H 1.640625 L 2.375,-1.484375 3.25,-5.21875 H 4.9375 L 5.828125,-1.5 6.5625,-5.21875 Z m 0,0"
           id="path117" />
      </g>
    </g>
  </g>
  <g
     fill="#211f60"
     fill-opacity="1"
     id="g123"
     transform="translate(-25.280795,-116.35487)">
    <g
       transform="translate(252.23097,196.62969)"
       id="g122">
      <g
         id="g121">
        <path
           d="m 5.5,-2.6875 c 0,0.148438 -0.011719,0.304688 -0.03125,0.46875 h -3.625 c 0.03125,0.324219 0.132812,0.574219 0.3125,0.75 0.1875,0.167969 0.414062,0.25 0.6875,0.25 0.394531,0 0.671875,-0.171875 0.828125,-0.515625 H 5.375 c -0.09375,0.34375 -0.257812,0.65625 -0.484375,0.9375 -0.21875,0.273437 -0.5,0.484375 -0.84375,0.640625 C 3.703125,0 3.316406,0.078125 2.890625,0.078125 2.378906,0.078125 1.925781,-0.03125 1.53125,-0.25 1.132812,-0.46875 0.820312,-0.78125 0.59375,-1.1875 0.375,-1.59375 0.265625,-2.066406 0.265625,-2.609375 0.265625,-3.148438 0.375,-3.625 0.59375,-4.03125 0.8125,-4.4375 1.117188,-4.742188 1.515625,-4.953125 c 0.40625,-0.21875 0.863281,-0.328125 1.375,-0.328125 0.507813,0 0.957031,0.105469 1.34375,0.3125 C 4.628906,-4.757812 4.9375,-4.457031 5.15625,-4.0625 5.382812,-3.664062 5.5,-3.207031 5.5,-2.6875 Z M 3.859375,-3.109375 c 0,-0.269531 -0.09375,-0.488281 -0.28125,-0.65625 -0.1875,-0.164063 -0.421875,-0.25 -0.703125,-0.25 -0.273438,0 -0.5,0.078125 -0.6875,0.234375 -0.179688,0.15625 -0.289062,0.382812 -0.328125,0.671875 z m 0,0"
           id="path120" />
      </g>
    </g>
  </g>
  <g
     fill="#211f60"
     fill-opacity="1"
     id="g126"
     transform="translate(-25.280795,-116.35487)">
    <g
       transform="translate(257.98599,196.62969)"
       id="g125">
      <g
         id="g124">
        <path
           d="m 2.171875,-4.34375 c 0.1875,-0.289062 0.421875,-0.515625 0.703125,-0.671875 0.28125,-0.164063 0.59375,-0.25 0.9375,-0.25 v 1.6875 H 3.375 c -0.398438,0 -0.699219,0.089844 -0.90625,0.265625 -0.199219,0.167969 -0.296875,0.464844 -0.296875,0.890625 V 0 h -1.59375 v -5.21875 h 1.59375 z m 0,0"
           id="path123" />
      </g>
    </g>
  </g>
  <g
     fill="#211f60"
     fill-opacity="1"
     id="g129"
     transform="translate(-25.280795,-116.35487)">
    <g
       transform="translate(261.98461,196.62969)"
       id="g128">
      <g
         id="g127" />
    </g>
  </g>
  <g
     fill="#211f60"
     fill-opacity="1"
     id="g132"
     transform="translate(-25.280795,-116.35487)">
    <g
       transform="translate(263.96523,196.62969)"
       id="g131">
      <g
         id="g130">
        <path
           d="m 2.953125,0.078125 c -0.511719,0 -0.96875,-0.109375 -1.375,-0.328125 -0.40625,-0.21875 -0.730469,-0.53125 -0.96875,-0.9375 -0.230469,-0.40625 -0.34375,-0.878906 -0.34375,-1.421875 0,-0.53125 0.113281,-1 0.34375,-1.40625 0.238281,-0.414063 0.5625,-0.726563 0.96875,-0.9375 0.414063,-0.21875 0.878906,-0.328125 1.390625,-0.328125 0.507812,0 0.96875,0.109375 1.375,0.328125 0.414062,0.210937 0.742188,0.523437 0.984375,0.9375 0.238281,0.40625 0.359375,0.875 0.359375,1.40625 0,0.542969 -0.121094,1.015625 -0.359375,1.421875 C 5.085938,-0.78125 4.757812,-0.46875 4.34375,-0.25 3.925781,-0.03125 3.460938,0.078125 2.953125,0.078125 Z m 0,-1.390625 c 0.300781,0 0.5625,-0.109375 0.78125,-0.328125 C 3.953125,-1.867188 4.0625,-2.191406 4.0625,-2.609375 4.0625,-3.023438 3.953125,-3.34375 3.734375,-3.5625 3.523438,-3.789062 3.269531,-3.90625 2.96875,-3.90625 c -0.3125,0 -0.574219,0.109375 -0.78125,0.328125 -0.199219,0.21875 -0.296875,0.542969 -0.296875,0.96875 0,0.417969 0.097656,0.742187 0.296875,0.96875 0.207031,0.21875 0.460938,0.328125 0.765625,0.328125 z m 0,0"
           id="path129" />
      </g>
    </g>
  </g>
  <g
     fill="#211f60"
     fill-opacity="1"
     id="g135"
     transform="translate(-25.280795,-116.35487)">
    <g
       transform="translate(269.91644,196.62969)"
       id="g134">
      <g
         id="g133">
        <path
           d="M 5.734375,-5.21875 V 0 H 4.125 V -0.703125 C 3.96875,-0.472656 3.75,-0.285156 3.46875,-0.140625 3.195312,-0.00390625 2.890625,0.0625 2.546875,0.0625 c -0.398437,0 -0.75,-0.0859375 -1.0625,-0.265625 C 1.179688,-0.378906 0.945312,-0.632812 0.78125,-0.96875 0.613281,-1.3125 0.53125,-1.710938 0.53125,-2.171875 V -5.21875 H 2.125 V -2.375 c 0,0.34375 0.085938,0.617188 0.265625,0.8125 0.175781,0.1875 0.421875,0.28125 0.734375,0.28125 0.3125,0 0.554688,-0.09375 0.734375,-0.28125 C 4.035156,-1.757812 4.125,-2.03125 4.125,-2.375 v -2.84375 z m 0,0"
           id="path132" />
      </g>
    </g>
  </g>
  <g
     fill="#211f60"
     fill-opacity="1"
     id="g138"
     transform="translate(-25.280795,-116.35487)">
    <g
       transform="translate(276.21333,196.62969)"
       id="g137">
      <g
         id="g136">
        <path
           d="M 3.484375,-1.359375 V 0 h -0.8125 C 2.085938,0 1.632812,-0.140625 1.3125,-0.421875 0.988281,-0.703125 0.828125,-1.164062 0.828125,-1.8125 v -2.078125 h -0.625 V -5.21875 h 0.625 v -1.265625 h 1.59375 V -5.21875 H 3.46875 v 1.328125 H 2.421875 v 2.09375 c 0,0.15625 0.035156,0.273437 0.109375,0.34375 0.082031,0.0625 0.210938,0.09375 0.390625,0.09375 z m 0,0"
           id="path135" />
      </g>
    </g>
  </g>
  <g
     fill="#211f60"
     fill-opacity="1"
     id="g141"
     transform="translate(-25.280795,-116.35487)">
    <g
       transform="translate(280.00641,196.62969)"
       id="g140">
      <g
         id="g139">
        <path
           d="M 0.265625,-2.609375 C 0.265625,-3.148438 0.363281,-3.625 0.5625,-4.03125 0.769531,-4.4375 1.046875,-4.742188 1.390625,-4.953125 1.742188,-5.171875 2.132812,-5.28125 2.5625,-5.28125 c 0.363281,0 0.679688,0.074219 0.953125,0.21875 0.28125,0.148438 0.5,0.34375 0.65625,0.59375 v -0.75 h 1.59375 V 0 h -1.59375 v -0.734375 c -0.15625,0.242187 -0.375,0.4375 -0.65625,0.59375 -0.273437,0.14453125 -0.59375,0.21875 -0.96875,0.21875 -0.417969,0 -0.804687,-0.109375 -1.15625,-0.328125 -0.34375,-0.226562 -0.621094,-0.546875 -0.828125,-0.953125 -0.199219,-0.40625 -0.296875,-0.875 -0.296875,-1.40625 z m 3.90625,0 c 0,-0.394531 -0.117187,-0.707031 -0.34375,-0.9375 -0.21875,-0.226563 -0.484375,-0.34375 -0.796875,-0.34375 -0.324219,0 -0.59375,0.117187 -0.8125,0.34375 -0.21875,0.21875 -0.328125,0.53125 -0.328125,0.9375 0,0.398437 0.109375,0.714844 0.328125,0.953125 0.21875,0.230469 0.488281,0.34375 0.8125,0.34375 0.3125,0 0.578125,-0.113281 0.796875,-0.34375 0.226563,-0.238281 0.34375,-0.554688 0.34375,-0.953125 z m 0,0"
           id="path138" />
      </g>
    </g>
  </g>
  <g
     fill="#211f60"
     fill-opacity="1"
     id="g144"
     transform="translate(-25.280795,-116.35487)">
    <g
       transform="translate(286.35001,196.62969)"
       id="g143">
      <g
         id="g142">
        <path
           d="m 2.5625,-5.28125 c 0.363281,0 0.679688,0.074219 0.953125,0.21875 0.28125,0.148438 0.5,0.34375 0.65625,0.59375 v -0.75 h 1.59375 v 5.203125 c 0,0.476563 -0.101563,0.910156 -0.296875,1.296875 C 5.28125,1.675781 4.992188,1.988281 4.609375,2.21875 4.222656,2.445312 3.738281,2.5625 3.15625,2.5625 2.382812,2.5625 1.757812,2.378906 1.28125,2.015625 0.800781,1.648438 0.523438,1.160156 0.453125,0.546875 H 2.03125 c 0.050781,0.195313 0.171875,0.351563 0.359375,0.46875 0.1875,0.113281 0.414063,0.171875 0.6875,0.171875 0.332031,0 0.597656,-0.101562 0.796875,-0.296875 0.195312,-0.1875 0.296875,-0.492187 0.296875,-0.90625 V -0.75 c -0.15625,0.242188 -0.375,0.4375 -0.65625,0.59375 C 3.242188,0 2.925781,0.078125 2.5625,0.078125 2.132812,0.078125 1.742188,-0.03125 1.390625,-0.25 1.046875,-0.476562 0.769531,-0.796875 0.5625,-1.203125 0.363281,-1.609375 0.265625,-2.078125 0.265625,-2.609375 0.265625,-3.148438 0.363281,-3.625 0.5625,-4.03125 0.769531,-4.4375 1.046875,-4.742188 1.390625,-4.953125 1.742188,-5.171875 2.132812,-5.28125 2.5625,-5.28125 Z m 1.609375,2.671875 c 0,-0.394531 -0.117187,-0.707031 -0.34375,-0.9375 -0.21875,-0.226563 -0.484375,-0.34375 -0.796875,-0.34375 -0.324219,0 -0.59375,0.117187 -0.8125,0.34375 -0.21875,0.21875 -0.328125,0.53125 -0.328125,0.9375 0,0.398437 0.109375,0.714844 0.328125,0.953125 0.21875,0.230469 0.488281,0.34375 0.8125,0.34375 0.3125,0 0.578125,-0.113281 0.796875,-0.34375 0.226563,-0.238281 0.34375,-0.554688 0.34375,-0.953125 z m 0,0"
           id="path141" />
      </g>
    </g>
  </g>
  <g
     fill="#211f60"
     fill-opacity="1"
     id="g147"
     transform="translate(-25.280795,-116.35487)">
    <g
       transform="translate(292.69361,196.62969)"
       id="g146">
      <g
         id="g145">
        <path
           d="m 5.5,-2.6875 c 0,0.148438 -0.011719,0.304688 -0.03125,0.46875 h -3.625 c 0.03125,0.324219 0.132812,0.574219 0.3125,0.75 0.1875,0.167969 0.414062,0.25 0.6875,0.25 0.394531,0 0.671875,-0.171875 0.828125,-0.515625 H 5.375 c -0.09375,0.34375 -0.257812,0.65625 -0.484375,0.9375 -0.21875,0.273437 -0.5,0.484375 -0.84375,0.640625 C 3.703125,0 3.316406,0.078125 2.890625,0.078125 2.378906,0.078125 1.925781,-0.03125 1.53125,-0.25 1.132812,-0.46875 0.820312,-0.78125 0.59375,-1.1875 0.375,-1.59375 0.265625,-2.066406 0.265625,-2.609375 0.265625,-3.148438 0.375,-3.625 0.59375,-4.03125 0.8125,-4.4375 1.117188,-4.742188 1.515625,-4.953125 c 0.40625,-0.21875 0.863281,-0.328125 1.375,-0.328125 0.507813,0 0.957031,0.105469 1.34375,0.3125 C 4.628906,-4.757812 4.9375,-4.457031 5.15625,-4.0625 5.382812,-3.664062 5.5,-3.207031 5.5,-2.6875 Z M 3.859375,-3.109375 c 0,-0.269531 -0.09375,-0.488281 -0.28125,-0.65625 -0.1875,-0.164063 -0.421875,-0.25 -0.703125,-0.25 -0.273438,0 -0.5,0.078125 -0.6875,0.234375 -0.179688,0.15625 -0.289062,0.382812 -0.328125,0.671875 z m 0,0"
           id="path144" />
      </g>
    </g>
  </g>
  <g
     fill="#211f60"
     fill-opacity="1"
     id="g150"
     transform="translate(-25.280795,-116.35487)">
    <g
       transform="translate(298.44863,196.62969)"
       id="g149">
      <g
         id="g148" />
    </g>
  </g>
  <g
     fill="#211f60"
     fill-opacity="1"
     id="g153"
     transform="translate(-25.280795,-116.35487)">
    <g
       transform="translate(300.42925,196.62969)"
       id="g152">
      <g
         id="g151">
        <path
           d="m 2.171875,-4.34375 c 0.1875,-0.289062 0.421875,-0.515625 0.703125,-0.671875 0.28125,-0.164063 0.59375,-0.25 0.9375,-0.25 v 1.6875 H 3.375 c -0.398438,0 -0.699219,0.089844 -0.90625,0.265625 -0.199219,0.167969 -0.296875,0.464844 -0.296875,0.890625 V 0 h -1.59375 v -5.21875 h 1.59375 z m 0,0"
           id="path150" />
      </g>
    </g>
  </g>
  <g
     fill="#211f60"
     fill-opacity="1"
     id="g156"
     transform="translate(-25.280795,-116.35487)">
    <g
       transform="translate(304.42786,196.62969)"
       id="g155">
      <g
         id="g154">
        <path
           d="m 5.5,-2.6875 c 0,0.148438 -0.011719,0.304688 -0.03125,0.46875 h -3.625 c 0.03125,0.324219 0.132812,0.574219 0.3125,0.75 0.1875,0.167969 0.414062,0.25 0.6875,0.25 0.394531,0 0.671875,-0.171875 0.828125,-0.515625 H 5.375 c -0.09375,0.34375 -0.257812,0.65625 -0.484375,0.9375 -0.21875,0.273437 -0.5,0.484375 -0.84375,0.640625 C 3.703125,0 3.316406,0.078125 2.890625,0.078125 2.378906,0.078125 1.925781,-0.03125 1.53125,-0.25 1.132812,-0.46875 0.820312,-0.78125 0.59375,-1.1875 0.375,-1.59375 0.265625,-2.066406 0.265625,-2.609375 0.265625,-3.148438 0.375,-3.625 0.59375,-4.03125 0.8125,-4.4375 1.117188,-4.742188 1.515625,-4.953125 c 0.40625,-0.21875 0.863281,-0.328125 1.375,-0.328125 0.507813,0 0.957031,0.105469 1.34375,0.3125 C 4.628906,-4.757812 4.9375,-4.457031 5.15625,-4.0625 5.382812,-3.664062 5.5,-3.207031 5.5,-2.6875 Z M 3.859375,-3.109375 c 0,-0.269531 -0.09375,-0.488281 -0.28125,-0.65625 -0.1875,-0.164063 -0.421875,-0.25 -0.703125,-0.25 -0.273438,0 -0.5,0.078125 -0.6875,0.234375 -0.179688,0.15625 -0.289062,0.382812 -0.328125,0.671875 z m 0,0"
           id="path153" />
      </g>
    </g>
  </g>
  <g
     fill="#211f60"
     fill-opacity="1"
     id="g159"
     transform="translate(-25.280795,-116.35487)">
    <g
       transform="translate(310.18289,196.62969)"
       id="g158">
      <g
         id="g157">
        <path
           d="m 2.171875,-4.46875 c 0.15625,-0.25 0.367187,-0.445312 0.640625,-0.59375 0.28125,-0.144531 0.601562,-0.21875 0.96875,-0.21875 0.425781,0 0.8125,0.109375 1.15625,0.328125 0.351562,0.210937 0.628906,0.515625 0.828125,0.921875 0.207031,0.40625 0.3125,0.882812 0.3125,1.421875 0,0.53125 -0.105469,1 -0.3125,1.40625 C 5.566406,-0.796875 5.289062,-0.476562 4.9375,-0.25 4.59375,-0.03125 4.207031,0.078125 3.78125,0.078125 c -0.355469,0 -0.671875,-0.07421875 -0.953125,-0.21875 -0.28125,-0.15625 -0.5,-0.351563 -0.65625,-0.59375 v 3.21875 H 0.578125 V -5.21875 h 1.59375 z m 2.28125,1.859375 c 0,-0.40625 -0.109375,-0.71875 -0.328125,-0.9375 -0.21875,-0.226563 -0.492188,-0.34375 -0.8125,-0.34375 -0.324219,0 -0.59375,0.117187 -0.8125,0.34375 -0.21875,0.230469 -0.328125,0.542969 -0.328125,0.9375 0,0.398437 0.109375,0.714844 0.328125,0.953125 0.21875,0.230469 0.488281,0.34375 0.8125,0.34375 0.3125,0 0.578125,-0.113281 0.796875,-0.34375 0.226563,-0.238281 0.34375,-0.554688 0.34375,-0.953125 z m 0,0"
           id="path156" />
      </g>
    </g>
  </g>
  <g
     fill="#211f60"
     fill-opacity="1"
     id="g162"
     transform="translate(-25.280795,-116.35487)">
    <g
       transform="translate(316.52647,196.62969)"
       id="g161">
      <g
         id="g160">
        <path
           d="m 2.953125,0.078125 c -0.511719,0 -0.96875,-0.109375 -1.375,-0.328125 -0.40625,-0.21875 -0.730469,-0.53125 -0.96875,-0.9375 -0.230469,-0.40625 -0.34375,-0.878906 -0.34375,-1.421875 0,-0.53125 0.113281,-1 0.34375,-1.40625 0.238281,-0.414063 0.5625,-0.726563 0.96875,-0.9375 0.414063,-0.21875 0.878906,-0.328125 1.390625,-0.328125 0.507812,0 0.96875,0.109375 1.375,0.328125 0.414062,0.210937 0.742188,0.523437 0.984375,0.9375 0.238281,0.40625 0.359375,0.875 0.359375,1.40625 0,0.542969 -0.121094,1.015625 -0.359375,1.421875 C 5.085938,-0.78125 4.757812,-0.46875 4.34375,-0.25 3.925781,-0.03125 3.460938,0.078125 2.953125,0.078125 Z m 0,-1.390625 c 0.300781,0 0.5625,-0.109375 0.78125,-0.328125 C 3.953125,-1.867188 4.0625,-2.191406 4.0625,-2.609375 4.0625,-3.023438 3.953125,-3.34375 3.734375,-3.5625 3.523438,-3.789062 3.269531,-3.90625 2.96875,-3.90625 c -0.3125,0 -0.574219,0.109375 -0.78125,0.328125 -0.199219,0.21875 -0.296875,0.542969 -0.296875,0.96875 0,0.417969 0.097656,0.742187 0.296875,0.96875 0.207031,0.21875 0.460938,0.328125 0.765625,0.328125 z m 0,0"
           id="path159" />
      </g>
    </g>
  </g>
  <g
     fill="#211f60"
     fill-opacity="1"
     id="g165"
     transform="translate(-25.280795,-116.35487)">
    <g
       transform="translate(322.47767,196.62969)"
       id="g164">
      <g
         id="g163">
        <path
           d="m 2.171875,-4.34375 c 0.1875,-0.289062 0.421875,-0.515625 0.703125,-0.671875 0.28125,-0.164063 0.59375,-0.25 0.9375,-0.25 v 1.6875 H 3.375 c -0.398438,0 -0.699219,0.089844 -0.90625,0.265625 -0.199219,0.167969 -0.296875,0.464844 -0.296875,0.890625 V 0 h -1.59375 v -5.21875 h 1.59375 z m 0,0"
           id="path162" />
      </g>
    </g>
  </g>
  <g
     fill="#211f60"
     fill-opacity="1"
     id="g168"
     transform="translate(-25.280795,-116.35487)">
    <g
       transform="translate(326.4763,196.62969)"
       id="g167">
      <g
         id="g166">
        <path
           d="M 3.484375,-1.359375 V 0 h -0.8125 C 2.085938,0 1.632812,-0.140625 1.3125,-0.421875 0.988281,-0.703125 0.828125,-1.164062 0.828125,-1.8125 v -2.078125 h -0.625 V -5.21875 h 0.625 v -1.265625 h 1.59375 V -5.21875 H 3.46875 v 1.328125 H 2.421875 v 2.09375 c 0,0.15625 0.035156,0.273437 0.109375,0.34375 0.082031,0.0625 0.210938,0.09375 0.390625,0.09375 z m 0,0"
           id="path165" />
      </g>
    </g>
  </g>
  <g
     fill="#211f60"
     fill-opacity="1"
     id="g171"
     transform="translate(-25.280795,-116.35487)">
    <g
       transform="translate(330.26938,196.62969)"
       id="g170">
      <g
         id="g169">
        <path
           d="M 1.390625,-5.75 C 1.109375,-5.75 0.878906,-5.832031 0.703125,-6 0.523438,-6.164062 0.4375,-6.367188 0.4375,-6.609375 c 0,-0.25 0.085938,-0.457031 0.265625,-0.625 0.175781,-0.164063 0.40625,-0.25 0.6875,-0.25 0.269531,0 0.492187,0.085937 0.671875,0.25 0.175781,0.167969 0.265625,0.375 0.265625,0.625 0,0.242187 -0.089844,0.445313 -0.265625,0.609375 -0.179688,0.167969 -0.402344,0.25 -0.671875,0.25 z m 0.78125,0.53125 V 0 h -1.59375 v -5.21875 z m 0,0"
           id="path168" />
      </g>
    </g>
  </g>
  <g
     fill="#211f60"
     fill-opacity="1"
     id="g174"
     transform="translate(-25.280795,-116.35487)">
    <g
       transform="translate(333.02542,196.62969)"
       id="g173">
      <g
         id="g172">
        <path
           d="m 3.75,-5.265625 c 0.613281,0 1.101562,0.199219 1.46875,0.59375 0.363281,0.398437 0.546875,0.9375 0.546875,1.625 V 0 h -1.59375 v -2.828125 c 0,-0.351563 -0.089844,-0.625 -0.265625,-0.8125 C 3.726562,-3.835938 3.484375,-3.9375 3.171875,-3.9375 c -0.304687,0 -0.546875,0.101562 -0.734375,0.296875 -0.179688,0.1875 -0.265625,0.460937 -0.265625,0.8125 V 0 h -1.59375 v -5.21875 h 1.59375 v 0.703125 C 2.335938,-4.753906 2.554688,-4.9375 2.828125,-5.0625 3.109375,-5.195312 3.414062,-5.265625 3.75,-5.265625 Z m 0,0"
           id="path171" />
      </g>
    </g>
  </g>
  <g
     fill="#211f60"
     fill-opacity="1"
     id="g177"
     transform="translate(-25.280795,-116.35487)">
    <g
       transform="translate(339.32232,196.62969)"
       id="g176">
      <g
         id="g175">
        <path
           d="m 2.5625,-5.28125 c 0.363281,0 0.679688,0.074219 0.953125,0.21875 0.28125,0.148438 0.5,0.34375 0.65625,0.59375 v -0.75 h 1.59375 v 5.203125 c 0,0.476563 -0.101563,0.910156 -0.296875,1.296875 C 5.28125,1.675781 4.992188,1.988281 4.609375,2.21875 4.222656,2.445312 3.738281,2.5625 3.15625,2.5625 2.382812,2.5625 1.757812,2.378906 1.28125,2.015625 0.800781,1.648438 0.523438,1.160156 0.453125,0.546875 H 2.03125 c 0.050781,0.195313 0.171875,0.351563 0.359375,0.46875 0.1875,0.113281 0.414063,0.171875 0.6875,0.171875 0.332031,0 0.597656,-0.101562 0.796875,-0.296875 0.195312,-0.1875 0.296875,-0.492187 0.296875,-0.90625 V -0.75 c -0.15625,0.242188 -0.375,0.4375 -0.65625,0.59375 C 3.242188,0 2.925781,0.078125 2.5625,0.078125 2.132812,0.078125 1.742188,-0.03125 1.390625,-0.25 1.046875,-0.476562 0.769531,-0.796875 0.5625,-1.203125 0.363281,-1.609375 0.265625,-2.078125 0.265625,-2.609375 0.265625,-3.148438 0.363281,-3.625 0.5625,-4.03125 0.769531,-4.4375 1.046875,-4.742188 1.390625,-4.953125 1.742188,-5.171875 2.132812,-5.28125 2.5625,-5.28125 Z m 1.609375,2.671875 c 0,-0.394531 -0.117187,-0.707031 -0.34375,-0.9375 -0.21875,-0.226563 -0.484375,-0.34375 -0.796875,-0.34375 -0.324219,0 -0.59375,0.117187 -0.8125,0.34375 -0.21875,0.21875 -0.328125,0.53125 -0.328125,0.9375 0,0.398437 0.109375,0.714844 0.328125,0.953125 0.21875,0.230469 0.488281,0.34375 0.8125,0.34375 0.3125,0 0.578125,-0.113281 0.796875,-0.34375 0.226563,-0.238281 0.34375,-0.554688 0.34375,-0.953125 z m 0,0"
           id="path174" />
      </g>
    </g>
  </g>
</svg>
