<?xml version="1.0" encoding="UTF-8" standalone="no"?>
<svg
   width="443.58499"
   zoomAndPan="magnify"
   viewBox="-5 -12 332.68875 166.00425"
   height="221.339"
   preserveAspectRatio="xMidYMid"
   version="1.0"
   id="svg30"
   sodipodi:docname="logo.svg"
   inkscape:version="1.4 (e7c3feb100, 2024-10-09)"
   xmlns:inkscape="http://www.inkscape.org/namespaces/inkscape"
   xmlns:sodipodi="http://sodipodi.sourceforge.net/DTD/sodipodi-0.dtd"
   xmlns="http://www.w3.org/2000/svg"
   xmlns:svg="http://www.w3.org/2000/svg">
  <sodipodi:namedview
     id="namedview30"
     pagecolor="#ffffff"
     bordercolor="#000000"
     borderopacity="0.25"
     inkscape:showpageshadow="false"
     inkscape:pageopacity="0.0"
     inkscape:pagecheckerboard="0"
     inkscape:deskcolor="#d1d1d1"
     showborder="false"
     borderlayer="false"
     inkscape:zoom="1.104"
     inkscape:cx="217.3913"
     inkscape:cy="95.108696"
     inkscape:window-width="1366"
     inkscape:window-height="761"
     inkscape:window-x="0"
     inkscape:window-y="32"
     inkscape:window-maximized="1"
     inkscape:current-layer="svg30" />
  <defs
     id="defs4">
    <g
       id="g1" />
    <clipPath
       id="8357f6b319">
      <path
         d="M 25.105469,116 H 114 V 259.88281 H 25.105469 Z m 0,0"
         clip-rule="nonzero"
         id="path1" />
    </clipPath>
    <clipPath
       id="31b1b21ccc">
      <path
         d="m 288,141 h 13 v 37 h -13 z m 0,0"
         clip-rule="nonzero"
         id="path2" />
    </clipPath>
    <clipPath
       id="e106cd66c3">
      <path
         d="m 287.51953,142.03125 11.99219,-0.42969 1.2539,35.23047 -11.99218,0.42578 z m 0,0"
         clip-rule="nonzero"
         id="path3" />
    </clipPath>
    <clipPath
       id="475d7f32c5">
      <path
         d="m 287.51953,142.03125 11.99219,-0.42969 1.2539,35.23047 -11.99218,0.42578 z m 0,0"
         clip-rule="nonzero"
         id="path4" />
    </clipPath>
  </defs>
  <g
     clip-path="url(#8357f6b319)"
     id="g5"
     transform="translate(-25.280795,-116.35487)">
    <path
       fill="#211f60"
       d="M 69.742188,259.85937 C 66.457031,243.73047 60.664062,230.3125 53.648438,217.875 48.445312,208.64844 42.417969,200.13281 36.839844,191.1875 c -1.859375,-2.98828 -3.46875,-6.14453 -5.257813,-9.24219 -3.578125,-6.19922 -6.476562,-13.38281 -6.292969,-22.70312 0.179688,-9.10938 2.8125,-16.41407 6.613282,-22.38672 6.246094,-9.82422 16.710937,-17.87891 30.75,-19.99609 11.480468,-1.73047 22.242187,1.19531 29.875,5.65625 6.234375,3.64843 11.066406,8.51953 14.738286,14.26171 3.82812,5.99219 6.46875,13.07032 6.6914,22.30469 0.11328,4.73047 -0.66406,9.11328 -1.7539,12.74609 -1.10547,3.67969 -2.87891,6.75391 -4.46094,10.03907 -3.08594,6.41015 -6.95313,12.28515 -10.83594,18.16015 -11.558594,17.50782 -22.414062,35.36328 -27.164062,59.83203 z m 0,0"
       fill-opacity="1"
       fill-rule="evenodd"
       id="path5" />
  </g>
  <path
     fill="#ffffff"
     d="m 59.879361,42.785755 c 0,1.01954 -0.101562,2.03125 -0.300781,3.03125 -0.199219,1 -0.492187,1.97266 -0.882813,2.91407 -0.390624,0.9414 -0.867187,1.83593 -1.4375,2.68359 -0.566406,0.85156 -1.207031,1.63672 -1.929687,2.35547 -0.722656,0.72266 -1.507813,1.36719 -2.355469,1.93359 -0.847656,0.56641 -1.742187,1.04297 -2.683594,1.4336 -0.945312,0.39062 -1.914062,0.6875 -2.914062,0.88672 -1.003906,0.19921 -2.011719,0.29687 -3.03125,0.29687 -1.019531,0 -2.03125,-0.0977 -3.03125,-0.29687 -1,-0.19922 -1.972656,-0.4961 -2.914062,-0.88672 -0.945313,-0.39063 -1.839844,-0.86719 -2.6875,-1.4336 -0.847657,-0.5664 -1.632813,-1.21093 -2.351563,-1.93359 -0.722656,-0.71875 -1.367187,-1.50391 -1.933594,-2.35547 -0.566406,-0.84766 -1.046875,-1.74219 -1.4375,-2.68359 -0.390625,-0.94141 -0.683593,-1.91407 -0.882812,-2.91407 -0.199219,-1 -0.296875,-2.01171 -0.296875,-3.03125 0,-1.01953 0.09766,-2.03125 0.296875,-3.03125 0.199219,-1 0.492187,-1.97265 0.882812,-2.91406 0.390625,-0.9414 0.871094,-1.83594 1.4375,-2.6875 0.566407,-0.84765 1.210938,-1.63281 1.933594,-2.35156 0.71875,-0.72266 1.503906,-1.36719 2.351563,-1.93359 0.847656,-0.56641 1.742187,-1.04297 2.6875,-1.4336 0.941406,-0.39062 1.914062,-0.6875 2.914062,-0.88672 1,-0.19922 2.011719,-0.29687 3.03125,-0.29687 1.019531,0 2.027344,0.0977 3.03125,0.29687 1,0.19922 1.96875,0.4961 2.914062,0.88672 0.941407,0.39063 1.835938,0.86719 2.683594,1.4336 0.847656,0.5664 1.632813,1.21093 2.355469,1.93359 0.722656,0.71875 1.363281,1.50391 1.929687,2.35156 0.570313,0.85156 1.046876,1.7461 1.4375,2.6875 0.390626,0.94141 0.683594,1.91406 0.882813,2.91406 0.199219,1 0.300781,2.01172 0.300781,3.03125 z m 0,0"
     fill-opacity="1"
     fill-rule="nonzero"
     id="path6" />
  <g
     fill="#ffbd59"
     fill-opacity="1"
     id="g9"
     transform="translate(-25.280795,-116.35487)">
    <g
       transform="translate(40.850899,184.89452)"
       id="g8">
      <g
         id="g7">
        <path
           d="m 28.875,0.515625 c -4.835938,0 -9.265625,-1.125 -13.296875,-3.375 C 11.546875,-5.109375 8.34375,-8.25 5.96875,-12.28125 3.601562,-16.3125 2.421875,-20.84375 2.421875,-25.875 c 0,-5.03125 1.179687,-9.546875 3.546875,-13.546875 2.375,-4.007813 5.578125,-7.132813 9.609375,-9.375 4.03125,-2.25 8.460937,-3.375 13.296875,-3.375 4.832031,0 9.265625,1.125 13.296875,3.375 4.03125,2.242187 7.207031,5.367187 9.53125,9.375 2.320313,4 3.484375,8.515625 3.484375,13.546875 0,5.03125 -1.179688,9.5625 -3.53125,13.59375 -2.34375,4.03125 -5.523438,7.171875 -9.53125,9.421875 -4,2.25 -8.417969,3.375 -13.25,3.375 z m 0,-11.4375 c 4.101562,0 7.390625,-1.363281 9.859375,-4.09375 2.46875,-2.738281 3.703125,-6.359375 3.703125,-10.859375 0,-4.539062 -1.234375,-8.164062 -3.703125,-10.875 -2.46875,-2.707031 -5.757813,-4.0625 -9.859375,-4.0625 -4.15625,0 -7.46875,1.34375 -9.9375,4.03125 -2.460938,2.6875 -3.6875,6.324219 -3.6875,10.90625 0,4.554688 1.226562,8.183594 3.6875,10.890625 2.46875,2.710937 5.78125,4.0625 9.9375,4.0625 z m 0,0"
           id="path7" />
      </g>
    </g>
  </g>
  <g
     fill="#ffbd59"
     fill-opacity="1"
     id="g12"
     transform="translate(-25.280795,-116.35487)">
    <g
       transform="translate(98.446938,184.89452)"
       id="g11">
      <g
         id="g10">
        <path
           d="M 44.921875,-40.890625 V 0 H 32.390625 V -5.5625 C 31.117188,-3.757812 29.394531,-2.304688 27.21875,-1.203125 25.050781,-0.109375 22.644531,0.4375 20,0.4375 c -3.125,0 -5.886719,-0.691406 -8.28125,-2.078125 C 9.332031,-3.035156 7.476562,-5.050781 6.15625,-7.6875 4.832031,-10.332031 4.171875,-13.4375 4.171875,-17 v -23.890625 h 12.46875 V -18.6875 c 0,2.742188 0.707031,4.867188 2.125,6.375 1.414063,1.511719 3.316406,2.265625 5.703125,2.265625 2.445312,0 4.378906,-0.753906 5.796875,-2.265625 1.414063,-1.507812 2.125,-3.632812 2.125,-6.375 v -22.203125 z m 0,0"
           id="path9" />
      </g>
    </g>
  </g>
  <g
     fill="#ffbd59"
     fill-opacity="1"
     id="g15"
     transform="translate(-25.280795,-116.35487)">
    <g
       transform="translate(147.83591,184.89452)"
       id="g14">
      <g
         id="g13">
        <path
           d="M 27.328125,-10.625 V 0 h -6.375 C 16.410156,0 12.867188,-1.109375 10.328125,-3.328125 7.785156,-5.554688 6.515625,-9.1875 6.515625,-14.21875 V -30.484375 H 1.53125 v -10.40625 h 4.984375 v -9.96875 h 12.53125 v 9.96875 h 8.21875 v 10.40625 h -8.21875 V -14.0625 c 0,1.21875 0.289063,2.101562 0.875,2.640625 0.59375,0.53125 1.570313,0.796875 2.9375,0.796875 z m 0,0"
           id="path12" />
      </g>
    </g>
  </g>
  <g
     fill="#ffbd59"
     fill-opacity="1"
     id="g18"
     transform="translate(-25.280795,-116.35487)">
    <g
       transform="translate(177.58655,184.89452)"
       id="g17">
      <g
         id="g16">
        <path
           d="m 2.046875,-20.515625 c 0,-4.207031 0.789063,-7.894531 2.375,-11.0625 1.59375,-3.175781 3.753906,-5.617187 6.484375,-7.328125 2.738281,-1.71875 5.796875,-2.578125 9.171875,-2.578125 2.882813,0 5.410156,0.589844 7.578125,1.765625 2.175781,1.179688 3.851562,2.714844 5.03125,4.609375 v -5.78125 H 45.21875 V 0 H 32.6875 v -5.796875 c -1.230469,1.90625 -2.933594,3.449219 -5.109375,4.625 C 25.410156,0.00390625 22.882812,0.59375 20,0.59375 16.675781,0.59375 13.644531,-0.269531 10.90625,-2 8.175781,-3.738281 6.015625,-6.207031 4.421875,-9.40625 c -1.585937,-3.207031 -2.375,-6.910156 -2.375,-11.109375 z m 30.640625,0.0625 c 0,-3.125 -0.871094,-5.585937 -2.609375,-7.390625 -1.730469,-1.8125 -3.839844,-2.71875 -6.328125,-2.71875 -2.5,0 -4.621094,0.898438 -6.359375,2.6875 -1.730469,1.78125 -2.59375,4.234375 -2.59375,7.359375 0,3.125 0.863281,5.605469 2.59375,7.4375 1.738281,1.835937 3.859375,2.75 6.359375,2.75 2.488281,0 4.597656,-0.898437 6.328125,-2.703125 1.738281,-1.8125 2.609375,-4.285156 2.609375,-7.421875 z m 0,0"
           id="path15" />
      </g>
    </g>
  </g>
  <g
     fill="#211f60"
     fill-opacity="1"
     id="g21"
     transform="translate(-25.280795,-116.35487)">
    <g
       transform="translate(227.34307,184.89452)"
       id="g20">
      <g
         id="g19">
        <path
           d="m 38.6875,-35.171875 c -0.929688,-1.707031 -2.261719,-3.015625 -4,-3.921875 -1.730469,-0.90625 -3.765625,-1.359375 -6.109375,-1.359375 -4.054687,0 -7.304687,1.335937 -9.75,4 -2.4375,2.65625 -3.65625,6.210937 -3.65625,10.65625 0,4.742187 1.28125,8.445313 3.84375,11.109375 2.5625,2.65625 6.09375,3.984375 10.59375,3.984375 3.070313,0 5.671875,-0.78125 7.796875,-2.34375 2.125,-1.5625 3.675781,-3.804687 4.65625,-6.734375 H 26.15625 v -9.234375 H 53.421875 V -17.375 c -0.929687,3.136719 -2.507813,6.046875 -4.734375,8.734375 -2.21875,2.6875 -5.039062,4.859375 -8.453125,6.515625 C 36.816406,-0.46875 32.957031,0.359375 28.65625,0.359375 23.570312,0.359375 19.039062,-0.75 15.0625,-2.96875 11.082031,-5.1875 7.976562,-8.273438 5.75,-12.234375 c -2.21875,-3.957031 -3.328125,-8.476563 -3.328125,-13.5625 0,-5.082031 1.109375,-9.613281 3.328125,-13.59375 2.226562,-3.976563 5.316406,-7.078125 9.265625,-9.296875 3.957031,-2.226562 8.476563,-3.34375 13.5625,-3.34375 6.15625,0 11.34375,1.492188 15.5625,4.46875 4.226563,2.980469 7.03125,7.109375 8.40625,12.390625 z m 0,0"
           id="path18" />
      </g>
    </g>
  </g>
  <g
     fill="#211f60"
     fill-opacity="1"
     id="g24"
     transform="translate(-25.280795,-116.35487)">
    <g
       transform="translate(283.18047,184.89452)"
       id="g23">
      <g
         id="g22">
        <path
           d="M 17.078125,-51.4375 V 0 H 4.546875 v -51.4375 z m 0,0"
           id="path21" />
      </g>
    </g>
  </g>
  <g
     fill="#211f60"
     fill-opacity="1"
     id="g27"
     transform="translate(-25.280795,-116.35487)">
    <g
       transform="translate(304.7973,184.89452)"
       id="g26">
      <g
         id="g25">
        <path
           d="m 23.15625,0.515625 c -3.761719,0 -7.132812,-0.609375 -10.109375,-1.828125 -2.980469,-1.226562 -5.367187,-3.035156 -7.15625,-5.421875 -1.78125,-2.394531 -2.71875,-5.28125 -2.8125,-8.65625 h 13.34375 c 0.1875,1.90625 0.84375,3.359375 1.96875,4.359375 1.125,1 2.59375,1.5 4.40625,1.5 1.851563,0 3.316406,-0.425781 4.390625,-1.28125 1.070312,-0.851562 1.609375,-2.035156 1.609375,-3.546875 0,-1.269531 -0.429687,-2.320313 -1.28125,-3.15625 -0.855469,-0.832031 -1.90625,-1.515625 -3.15625,-2.046875 -1.242187,-0.539062 -3.011719,-1.148438 -5.3125,-1.828125 -3.324219,-1.03125 -6.039063,-2.054687 -8.140625,-3.078125 C 8.8125,-25.5 7.003906,-27.015625 5.484375,-29.015625 c -1.511719,-2.007813 -2.265625,-4.625 -2.265625,-7.84375 0,-4.789063 1.734375,-8.539063 5.203125,-11.25 3.46875,-2.707031 7.988281,-4.0625 13.5625,-4.0625 5.664063,0 10.234375,1.355469 13.703125,4.0625 3.46875,2.710937 5.320312,6.484375 5.5625,11.328125 H 27.703125 c -0.105469,-1.664062 -0.71875,-2.972656 -1.84375,-3.921875 -1.117187,-0.957031 -2.554687,-1.4375 -4.3125,-1.4375 -1.523437,0 -2.746094,0.40625 -3.671875,1.21875 -0.929688,0.804687 -1.390625,1.960937 -1.390625,3.46875 0,1.667969 0.78125,2.964844 2.34375,3.890625 1.5625,0.929688 4.003906,1.929688 7.328125,3 3.320312,1.125 6.019531,2.203125 8.09375,3.234375 2.082031,1.023437 3.878906,2.511719 5.390625,4.46875 1.519531,1.949219 2.28125,4.464844 2.28125,7.546875 0,2.929688 -0.746094,5.589844 -2.234375,7.984375 -1.492188,2.398437 -3.652344,4.304687 -6.484375,5.71875 -2.835937,1.417969 -6.183594,2.125 -10.046875,2.125 z m 0,0"
           id="path24" />
      </g>
    </g>
  </g>
  <g
     clip-path="url(#31b1b21ccc)"
     id="g30"
     transform="translate(-25.280795,-116.35487)">
    <g
       clip-path="url(#e106cd66c3)"
       id="g29">
      <g
         clip-path="url(#475d7f32c5)"
         id="g28">
        <path
           fill="#ffbd59"
           d="m 288.24219,162.26953 c 0,0 3.58203,-8.03516 9.15625,-20.53516 -1.08203,5.05469 -2.16407,10.10938 -3.24219,15.16407 2.03516,-0.0703 4.06641,-0.14453 6.10156,-0.21485 -4.79297,10.64453 -9.16797,20.35938 -9.16797,20.36328 0,-0.004 3.33594,-14.91406 3.33594,-14.91406 0,0.004 -6.18359,0.13672 -6.18359,0.13672 z m 0,0"
           fill-opacity="1"
           fill-rule="nonzero"
           id="path27" />
      </g>
    </g>
  </g>
</svg>
