<svg xmlns="http://www.w3.org/2000/svg" zoomAndPan="magnify" preserveAspectRatio="xMidYMid meet" version="1.0" viewBox="43.27 132.72 303.45 52.77">
  <defs>
    <g/>
    <clipPath id="31b1b21ccc">
      <path d="M 288 141 L 301 141 L 301 178 L 288 178 Z M 288 141 " clip-rule="nonzero"/>
    </clipPath>
    <clipPath id="e106cd66c3">
      <path d="M 287.519531 142.03125 L 299.511719 141.601562 L 300.765625 176.832031 L 288.773438 177.257812 Z M 287.519531 142.03125 " clip-rule="nonzero"/>
    </clipPath>
    <clipPath id="475d7f32c5">
      <path d="M 287.519531 142.03125 L 299.511719 141.601562 L 300.765625 176.832031 L 288.773438 177.257812 Z M 287.519531 142.03125 " clip-rule="nonzero"/>
    </clipPath>
  </defs>
  <path fill="#ffffff" d="M 85.160156 159.140625 C 85.160156 160.160156 85.058594 161.171875 84.859375 162.171875 C 84.660156 163.171875 84.367188 164.144531 83.976562 165.085938 C 83.585938 166.027344 83.109375 166.921875 82.539062 167.769531 C 81.972656 168.621094 81.332031 169.40625 80.609375 170.125 C 79.886719 170.847656 79.101562 171.492188 78.253906 172.058594 C 77.40625 172.625 76.511719 173.101562 75.570312 173.492188 C 74.625 173.882812 73.65625 174.179688 72.65625 174.378906 C 71.652344 174.578125 70.644531 174.675781 69.625 174.675781 C 68.605469 174.675781 67.59375 174.578125 66.59375 174.378906 C 65.59375 174.179688 64.621094 173.882812 63.679688 173.492188 C 62.734375 173.101562 61.839844 172.625 60.992188 172.058594 C 60.144531 171.492188 59.359375 170.847656 58.640625 170.125 C 57.917969 169.40625 57.273438 168.621094 56.707031 167.769531 C 56.140625 166.921875 55.660156 166.027344 55.269531 165.085938 C 54.878906 164.144531 54.585938 163.171875 54.386719 162.171875 C 54.1875 161.171875 54.089844 160.160156 54.089844 159.140625 C 54.089844 158.121094 54.1875 157.109375 54.386719 156.109375 C 54.585938 155.109375 54.878906 154.136719 55.269531 153.195312 C 55.660156 152.253906 56.140625 151.359375 56.707031 150.507812 C 57.273438 149.660156 57.917969 148.875 58.640625 148.15625 C 59.359375 147.433594 60.144531 146.789062 60.992188 146.222656 C 61.839844 145.65625 62.734375 145.179688 63.679688 144.789062 C 64.621094 144.398438 65.59375 144.101562 66.59375 143.902344 C 67.59375 143.703125 68.605469 143.605469 69.625 143.605469 C 70.644531 143.605469 71.652344 143.703125 72.65625 143.902344 C 73.65625 144.101562 74.625 144.398438 75.570312 144.789062 C 76.511719 145.179688 77.40625 145.65625 78.253906 146.222656 C 79.101562 146.789062 79.886719 147.433594 80.609375 148.15625 C 81.332031 148.875 81.972656 149.660156 82.539062 150.507812 C 83.109375 151.359375 83.585938 152.253906 83.976562 153.195312 C 84.367188 154.136719 84.660156 155.109375 84.859375 156.109375 C 85.058594 157.109375 85.160156 158.121094 85.160156 159.140625 Z M 85.160156 159.140625 " fill-opacity="1" fill-rule="nonzero"/>
  <g fill="#ffbd59" fill-opacity="1">
    <g transform="translate(40.850899, 184.894521)">
      <g>
        <path d="M 28.875 0.515625 C 24.039062 0.515625 19.609375 -0.609375 15.578125 -2.859375 C 11.546875 -5.109375 8.34375 -8.25 5.96875 -12.28125 C 3.601562 -16.3125 2.421875 -20.84375 2.421875 -25.875 C 2.421875 -30.90625 3.601562 -35.421875 5.96875 -39.421875 C 8.34375 -43.429688 11.546875 -46.554688 15.578125 -48.796875 C 19.609375 -51.046875 24.039062 -52.171875 28.875 -52.171875 C 33.707031 -52.171875 38.140625 -51.046875 42.171875 -48.796875 C 46.203125 -46.554688 49.378906 -43.429688 51.703125 -39.421875 C 54.023438 -35.421875 55.1875 -30.90625 55.1875 -25.875 C 55.1875 -20.84375 54.007812 -16.3125 51.65625 -12.28125 C 49.3125 -8.25 46.132812 -5.109375 42.125 -2.859375 C 38.125 -0.609375 33.707031 0.515625 28.875 0.515625 Z M 28.875 -10.921875 C 32.976562 -10.921875 36.265625 -12.285156 38.734375 -15.015625 C 41.203125 -17.753906 42.4375 -21.375 42.4375 -25.875 C 42.4375 -30.414062 41.203125 -34.039062 38.734375 -36.75 C 36.265625 -39.457031 32.976562 -40.8125 28.875 -40.8125 C 24.71875 -40.8125 21.40625 -39.46875 18.9375 -36.78125 C 16.476562 -34.09375 15.25 -30.457031 15.25 -25.875 C 15.25 -21.320312 16.476562 -17.691406 18.9375 -14.984375 C 21.40625 -12.273438 24.71875 -10.921875 28.875 -10.921875 Z M 28.875 -10.921875 "/>
      </g>
    </g>
  </g>
  <g fill="#ffbd59" fill-opacity="1">
    <g transform="translate(98.446938, 184.894521)">
      <g>
        <path d="M 44.921875 -40.890625 L 44.921875 0 L 32.390625 0 L 32.390625 -5.5625 C 31.117188 -3.757812 29.394531 -2.304688 27.21875 -1.203125 C 25.050781 -0.109375 22.644531 0.4375 20 0.4375 C 16.875 0.4375 14.113281 -0.253906 11.71875 -1.640625 C 9.332031 -3.035156 7.476562 -5.050781 6.15625 -7.6875 C 4.832031 -10.332031 4.171875 -13.4375 4.171875 -17 L 4.171875 -40.890625 L 16.640625 -40.890625 L 16.640625 -18.6875 C 16.640625 -15.945312 17.347656 -13.820312 18.765625 -12.3125 C 20.179688 -10.800781 22.082031 -10.046875 24.46875 -10.046875 C 26.914062 -10.046875 28.847656 -10.800781 30.265625 -12.3125 C 31.679688 -13.820312 32.390625 -15.945312 32.390625 -18.6875 L 32.390625 -40.890625 Z M 44.921875 -40.890625 "/>
      </g>
    </g>
  </g>
  <g fill="#ffbd59" fill-opacity="1">
    <g transform="translate(147.835915, 184.894521)">
      <g>
        <path d="M 27.328125 -10.625 L 27.328125 0 L 20.953125 0 C 16.410156 0 12.867188 -1.109375 10.328125 -3.328125 C 7.785156 -5.554688 6.515625 -9.1875 6.515625 -14.21875 L 6.515625 -30.484375 L 1.53125 -30.484375 L 1.53125 -40.890625 L 6.515625 -40.890625 L 6.515625 -50.859375 L 19.046875 -50.859375 L 19.046875 -40.890625 L 27.265625 -40.890625 L 27.265625 -30.484375 L 19.046875 -30.484375 L 19.046875 -14.0625 C 19.046875 -12.84375 19.335938 -11.960938 19.921875 -11.421875 C 20.515625 -10.890625 21.492188 -10.625 22.859375 -10.625 Z M 27.328125 -10.625 "/>
      </g>
    </g>
  </g>
  <g fill="#ffbd59" fill-opacity="1">
    <g transform="translate(177.586546, 184.894521)">
      <g>
        <path d="M 2.046875 -20.515625 C 2.046875 -24.722656 2.835938 -28.410156 4.421875 -31.578125 C 6.015625 -34.753906 8.175781 -37.195312 10.90625 -38.90625 C 13.644531 -40.625 16.703125 -41.484375 20.078125 -41.484375 C 22.960938 -41.484375 25.488281 -40.894531 27.65625 -39.71875 C 29.832031 -38.539062 31.507812 -37.003906 32.6875 -35.109375 L 32.6875 -40.890625 L 45.21875 -40.890625 L 45.21875 0 L 32.6875 0 L 32.6875 -5.796875 C 31.457031 -3.890625 29.753906 -2.347656 27.578125 -1.171875 C 25.410156 0.00390625 22.882812 0.59375 20 0.59375 C 16.675781 0.59375 13.644531 -0.269531 10.90625 -2 C 8.175781 -3.738281 6.015625 -6.207031 4.421875 -9.40625 C 2.835938 -12.613281 2.046875 -16.316406 2.046875 -20.515625 Z M 32.6875 -20.453125 C 32.6875 -23.578125 31.816406 -26.039062 30.078125 -27.84375 C 28.347656 -29.65625 26.238281 -30.5625 23.75 -30.5625 C 21.25 -30.5625 19.128906 -29.664062 17.390625 -27.875 C 15.660156 -26.09375 14.796875 -23.640625 14.796875 -20.515625 C 14.796875 -17.390625 15.660156 -14.910156 17.390625 -13.078125 C 19.128906 -11.242188 21.25 -10.328125 23.75 -10.328125 C 26.238281 -10.328125 28.347656 -11.226562 30.078125 -13.03125 C 31.816406 -14.84375 32.6875 -17.316406 32.6875 -20.453125 Z M 32.6875 -20.453125 "/>
      </g>
    </g>
  </g>
  <g fill="#211f60" fill-opacity="1">
    <g transform="translate(227.343074, 184.894521)">
      <g>
        <path d="M 38.6875 -35.171875 C 37.757812 -36.878906 36.425781 -38.1875 34.6875 -39.09375 C 32.957031 -40 30.921875 -40.453125 28.578125 -40.453125 C 24.523438 -40.453125 21.273438 -39.117188 18.828125 -36.453125 C 16.390625 -33.796875 15.171875 -30.242188 15.171875 -25.796875 C 15.171875 -21.054688 16.453125 -17.351562 19.015625 -14.6875 C 21.578125 -12.03125 25.109375 -10.703125 29.609375 -10.703125 C 32.679688 -10.703125 35.28125 -11.484375 37.40625 -13.046875 C 39.53125 -14.609375 41.082031 -16.851562 42.0625 -19.78125 L 26.15625 -19.78125 L 26.15625 -29.015625 L 53.421875 -29.015625 L 53.421875 -17.375 C 52.492188 -14.238281 50.914062 -11.328125 48.6875 -8.640625 C 46.46875 -5.953125 43.648438 -3.78125 40.234375 -2.125 C 36.816406 -0.46875 32.957031 0.359375 28.65625 0.359375 C 23.570312 0.359375 19.039062 -0.75 15.0625 -2.96875 C 11.082031 -5.1875 7.976562 -8.273438 5.75 -12.234375 C 3.53125 -16.191406 2.421875 -20.710938 2.421875 -25.796875 C 2.421875 -30.878906 3.53125 -35.410156 5.75 -39.390625 C 7.976562 -43.367188 11.066406 -46.46875 15.015625 -48.6875 C 18.972656 -50.914062 23.492188 -52.03125 28.578125 -52.03125 C 34.734375 -52.03125 39.921875 -50.539062 44.140625 -47.5625 C 48.367188 -44.582031 51.171875 -40.453125 52.546875 -35.171875 Z M 38.6875 -35.171875 "/>
      </g>
    </g>
  </g>
  <g fill="#211f60" fill-opacity="1">
    <g transform="translate(283.180465, 184.894521)">
      <g>
        <path d="M 17.078125 -51.4375 L 17.078125 0 L 4.546875 0 L 4.546875 -51.4375 Z M 17.078125 -51.4375 "/>
      </g>
    </g>
  </g>
  <g fill="#211f60" fill-opacity="1">
    <g transform="translate(304.797301, 184.894521)">
      <g>
        <path d="M 23.15625 0.515625 C 19.394531 0.515625 16.023438 -0.09375 13.046875 -1.3125 C 10.066406 -2.539062 7.679688 -4.347656 5.890625 -6.734375 C 4.109375 -9.128906 3.171875 -12.015625 3.078125 -15.390625 L 16.421875 -15.390625 C 16.609375 -13.484375 17.265625 -12.03125 18.390625 -11.03125 C 19.515625 -10.03125 20.984375 -9.53125 22.796875 -9.53125 C 24.648438 -9.53125 26.113281 -9.957031 27.1875 -10.8125 C 28.257812 -11.664062 28.796875 -12.847656 28.796875 -14.359375 C 28.796875 -15.628906 28.367188 -16.679688 27.515625 -17.515625 C 26.660156 -18.347656 25.609375 -19.03125 24.359375 -19.5625 C 23.117188 -20.101562 21.347656 -20.710938 19.046875 -21.390625 C 15.722656 -22.421875 13.007812 -23.445312 10.90625 -24.46875 C 8.8125 -25.5 7.003906 -27.015625 5.484375 -29.015625 C 3.972656 -31.023438 3.21875 -33.640625 3.21875 -36.859375 C 3.21875 -41.648438 4.953125 -45.398438 8.421875 -48.109375 C 11.890625 -50.816406 16.410156 -52.171875 21.984375 -52.171875 C 27.648438 -52.171875 32.21875 -50.816406 35.6875 -48.109375 C 39.15625 -45.398438 41.007812 -41.625 41.25 -36.78125 L 27.703125 -36.78125 C 27.597656 -38.445312 26.984375 -39.753906 25.859375 -40.703125 C 24.742188 -41.660156 23.304688 -42.140625 21.546875 -42.140625 C 20.023438 -42.140625 18.800781 -41.734375 17.875 -40.921875 C 16.945312 -40.117188 16.484375 -38.960938 16.484375 -37.453125 C 16.484375 -35.785156 17.265625 -34.488281 18.828125 -33.5625 C 20.390625 -32.632812 22.832031 -31.632812 26.15625 -30.5625 C 29.476562 -29.4375 32.175781 -28.359375 34.25 -27.328125 C 36.332031 -26.304688 38.128906 -24.816406 39.640625 -22.859375 C 41.160156 -20.910156 41.921875 -18.394531 41.921875 -15.3125 C 41.921875 -12.382812 41.175781 -9.722656 39.6875 -7.328125 C 38.195312 -4.929688 36.035156 -3.023438 33.203125 -1.609375 C 30.367188 -0.191406 27.019531 0.515625 23.15625 0.515625 Z M 23.15625 0.515625 "/>
      </g>
    </g>
  </g>
  <g clip-path="url(#31b1b21ccc)">
    <g clip-path="url(#e106cd66c3)">
      <g clip-path="url(#475d7f32c5)">
        <path fill="#ffbd59" d="M 288.242188 162.269531 C 288.242188 162.269531 291.824219 154.234375 297.398438 141.734375 C 296.316406 146.789062 295.234375 151.84375 294.15625 156.898438 C 296.191406 156.828125 298.222656 156.753906 300.257812 156.683594 C 295.464844 167.328125 291.089844 177.042969 291.089844 177.046875 C 291.089844 177.042969 294.425781 162.132812 294.425781 162.132812 C 294.425781 162.136719 288.242188 162.269531 288.242188 162.269531 Z M 288.242188 162.269531 " fill-opacity="1" fill-rule="nonzero"/>
      </g>
    </g>
  </g>
</svg>