<?xml version="1.0" encoding="utf-8"?>
<!-- Generator: Adobe Illustrator 26.5.0, SVG Export Plug-In . SVG Version: 6.00 Build 0)  -->
<svg version="1.1" xmlns="http://www.w3.org/2000/svg" xmlns:xlink="http://www.w3.org/1999/xlink" x="0px" y="0px"
	 viewBox="0 0 240 100" style="enable-background:new 0 0 240 100;" xml:space="preserve">
<style type="text/css">
	.st0{fill:#3E3935;}
	.st1{fill:#FFFFFF;}
	.st2{fill:#05A1C6;}
	.st3{fill:#48A747;}
	.st4{display:none;}
	.st5{display:inline;}
	.st6{fill:#CCC1B3;}
</style>
<g id="Layer_3">
</g>
<g id="Layer_1">
	<g>
		<g>
			<path class="st0" d="M87.1,38.9c4,0,5.9,2.3,5.9,5.3c0,2.1-0.9,3.5-2.4,4.1c1.5,0.6,2.4,2.1,2.4,4.1c0,3-1.9,5.3-5.9,5.3H79V38.9
				H87.1z M86.9,43.5h-3.4v2.6h3.3c0.9,0,1.5-0.5,1.5-1.3C88.4,44,87.9,43.5,86.9,43.5z M86.9,50.6h-3.3v2.6h3.4
				c1,0,1.4-0.5,1.4-1.2C88.4,51.1,87.8,50.6,86.9,50.6z"/>
			<path class="st0" d="M103.5,38.9c2.6,0,5.1,0.8,6.9,2.5l-2.2,4.2c-1.4-1.5-2.9-2.1-4.7-2.1c-2.8,0-4.9,2-4.9,4.8s2,4.8,4.9,4.8
				c1.7,0,3.4-0.6,5-2.4l2.3,4.2c-1.9,1.8-4.4,2.7-7.2,2.7c-5.5,0-9.5-4.1-9.5-9.4C94,42.9,98.1,38.9,103.5,38.9z"/>
			<path class="st0" d="M132.1,38.9v18.8h-4.6v-7.1h-6.7v7.1h-4.6V38.9h4.6v7.1h6.7v-7.1H132.1z"/>
			<path class="st0" d="M136.1,62l2.8-6.3l-5.7-11.4h5l2.9,6.4l2.8-6.4h4.5L140.6,62H136.1z"/>
			<path class="st0" d="M162.6,38.9v18.8h-4.3v-1.8c-1,1.4-2.5,2.2-4.3,2.2c-3.1,0-5.9-2.4-5.9-7.1s2.8-7.1,5.8-7.1
				c2.1,0,3.6,1,4.4,2.3v-7.3H162.6z M152.5,51c0,1.8,1.4,2.8,2.9,2.8c1.6,0,2.9-1,2.9-2.8c0-1.8-1.4-2.8-2.9-2.8
				C153.8,48.2,152.5,49.3,152.5,51z"/>
			<path class="st0" d="M172.9,44c0.5,0,0.9,0.1,1.3,0.2v4.7c-0.5-0.2-1.2-0.3-1.7-0.3c-1.9,0-3.1,0.9-3.1,3.2v5.9H165V44.3h4.1v2.3
				C169.9,45,171,44,172.9,44z"/>
			<path class="st0" d="M182.1,44c4.2,0,7.3,2.7,7.3,7c0,4.3-3.1,7-7.3,7s-7.3-2.7-7.3-7C174.8,46.7,177.9,44,182.1,44z M182.1,48.2
				c-1.6,0-2.9,1-2.9,2.8c0,1.8,1.4,2.8,2.9,2.8c1.6,0,2.9-1,2.9-2.8C185.1,49.3,183.7,48.2,182.1,48.2z"/>
		</g>
		<g>
			<g>
				<path class="st2" d="M61.1,59.1c5.8,0,10.5-4.5,10.9-10.2c-1.5,0-3,0-4.5,0.2c-1.1,0.2-1.8,0.8-2.1,1.9
					c-0.1,0.3-1.2,4.5-1.2,4.6c-0.1,0.3-0.2,0.7-0.6,0.7c-0.5,0-0.6-0.3-0.6-0.7c0,0-0.8-4.9-1-5.4c-0.1-0.5-0.5-0.8-0.9-0.8
					s-0.7,0.3-0.9,0.8c-0.1,0.5-1,5.4-1,5.4c-0.1,0.3-0.2,0.7-0.6,0.7c-0.4,0-0.5-0.3-0.6-0.7c0,0-1.2-4.3-1.2-4.6
					c-0.3-1.1-1-1.7-2.1-1.9c-1.5-0.3-3-0.2-4.5-0.2C50.6,54.5,55.3,59.1,61.1,59.1"/>
			</g>
			<g>
				<path class="st3" d="M61.1,37.3c5.8,0,10.5,4.5,10.9,10.2c-1.5,0-3,0-4.5-0.2c-1.1-0.2-1.8-0.8-2.1-1.9
					c-0.1-0.3-1.2-4.5-1.2-4.6c-0.1-0.3-0.2-0.7-0.6-0.7c-0.5,0-0.6,0.3-0.6,0.7c0,0-0.8,4.9-1,5.4c-0.1,0.5-0.5,0.8-0.9,0.8
					s-0.7-0.3-0.9-0.8c-0.1-0.5-1-5.4-1-5.4c-0.1-0.3-0.2-0.7-0.6-0.7c-0.4,0-0.5,0.3-0.6,0.7c0,0-1.2,4.3-1.2,4.6
					c-0.3,1.1-1,1.7-2.1,1.9c-1.5,0.3-3,0.2-4.5,0.2C50.6,41.8,55.3,37.3,61.1,37.3"/>
			</g>
		</g>
	</g>
</g>
<g id="Layer_2" class="st4">
</g>
</svg>
